<svg xmlns="http://www.w3.org/2000/svg" xmlns:xlink="http://www.w3.org/1999/xlink" width="48" height="48" viewBox="0 0 48 48"><defs><linearGradient id="a" x1="0.5" x2="0.5" y2="0.681" gradientUnits="objectBoundingBox"><stop offset="0" stop-color="#71bdff"/><stop offset="1" stop-color="#0089ff"/></linearGradient></defs><g transform="translate(-262 -107)"><g transform="translate(6 33)"><circle cx="24" cy="24" r="24" transform="translate(256 74)" fill="url(#a)"/><path d="M-519,2187a24,24,0,0,1,24,24A24,24,0,0,1-519,2187Z" transform="translate(775 -2089)" fill="rgba(255,255,255,0.24)"/><path d="M0,24A24,24,0,0,0,24,0,24,24,0,0,0,0,24Z" transform="translate(304 122) rotate(180)" fill="rgba(255,255,255,0.24)"/></g><path d="M6.946,98.431a2.287,2.287,0,0,0,2.315-2.249,2.312,2.312,0,0,0-.529-1.455L12.9,89.1a2.113,2.113,0,0,0,.926.2,2.312,2.312,0,0,0,1.455-.529l3.308,2.514a2.113,2.113,0,0,0-.2.926,2.316,2.316,0,1,0,2.315-2.249,2.312,2.312,0,0,0-1.455.529l-3.308-2.514a2.113,2.113,0,0,0,.2-.926A2.287,2.287,0,0,0,13.826,84.8a2.231,2.231,0,0,0-2.249,2.249,2.312,2.312,0,0,0,.529,1.455L7.873,94.065a2.113,2.113,0,0,0-.926-.2,2.287,2.287,0,0,0-2.315,2.249A2.344,2.344,0,0,0,6.946,98.431Zm16.34,2.911H3.109a.517.517,0,0,1-.331-.132.8.8,0,0,1-.132-.529V83.017a.522.522,0,0,0-.529-.529H.529a.529.529,0,0,0,0,1.059H1.588V85.8H.529A.469.469,0,0,0,0,86.259a.569.569,0,0,0,.529.529H1.588v2.249H.529A.522.522,0,0,0,0,89.567a.569.569,0,0,0,.529.529H1.588v2.249H.529A.522.522,0,0,0,0,92.874a.569.569,0,0,0,.529.529H1.588v2.249H.529A.522.522,0,0,0,0,96.182a.569.569,0,0,0,.529.529H1.588v2.249H.529A.522.522,0,0,0,0,99.49a.569.569,0,0,0,.529.529H1.588v.794a1.739,1.739,0,0,0,.529,1.323,1.358,1.358,0,0,0,.992.331H23.287a.522.522,0,0,0,.529-.529.541.541,0,0,0-.529-.6Z" transform="translate(274.184 38.087)" fill="#fff"/></g></svg>