<svg xmlns="http://www.w3.org/2000/svg" xmlns:xlink="http://www.w3.org/1999/xlink" width="48" height="48" viewBox="0 0 48 48"><defs><linearGradient id="a" x1="0.5" x2="0.5" y2="0.681" gradientUnits="objectBoundingBox"><stop offset="0" stop-color="#ffcb53"/><stop offset="1" stop-color="#ff8900"/></linearGradient></defs><g transform="translate(-256 -74)"><circle cx="24" cy="24" r="24" transform="translate(256 74)" fill="url(#a)"/><path d="M-519,2187a24,24,0,0,1,24,24A24,24,0,0,1-519,2187Z" transform="translate(775 -2089)" fill="rgba(255,255,255,0.24)"/><path d="M0,24A24,24,0,0,0,24,0,24,24,0,0,0,0,24Z" transform="translate(304 122) rotate(180)" fill="rgba(255,255,255,0.24)"/><path d="M46.953,61.057c-.459,0-.838.659-.838,1.149s.379,1.149.838,1.149h2.921c.46,0,.839-.659.839-1.149s-.379-1.149-.838-1.149H46.954Zm14.1-4.6c0-.491-.394-1.149-.893-1.149H47.008c-.489,0-.893.659-.893,1.149s.4,1.149.893,1.149H60.164C60.663,57.609,61.057,56.951,61.057,56.46Zm-14.051-4.6H60.165c.487,0,.892-.659.892-1.149s-.4-1.149-.892-1.149H47.007c-.487,0-.892.659-.892,1.149S46.52,51.862,47.007,51.862Zm18.648,4.009V45.021a2.413,2.413,0,0,0-2.407-2.354H45.47a3.106,3.106,0,0,0-2.8,2.746V65.207a3.107,3.107,0,0,0,2.8,2.736H59.246a1.052,1.052,0,0,0,.833-.245,1.023,1.023,0,0,0,.355-.784c0-.709-.51-1.377-1.043-1.377H46.147c-.7,0-1.043-.309-1.043-1.029V46c0-.607.251-.854.866-.854H62.257c.625,0,.886.237.886.854v9.893c0,.483.678.9,1.428.9a.967.967,0,0,0,.717-.232.941.941,0,0,0,.325-.672Zm-3.368,9.553L57.839,61.04a.781.781,0,0,1,1.107-1.1l3.341,3.34a.786.786,0,0,0,1.107,0l6.671-6.591a.786.786,0,0,1,1.107,0,.776.776,0,0,1,0,1.1l-7.778,7.636a.776.776,0,0,1-1.107,0Z" transform="translate(225.435 43.302)" fill="#fff"/></g></svg>