<svg xmlns="http://www.w3.org/2000/svg" xmlns:xlink="http://www.w3.org/1999/xlink" width="48" height="48" viewBox="0 0 48 48"><defs><linearGradient id="a" x1="0.5" x2="0.5" y2="0.618" gradientUnits="objectBoundingBox"><stop offset="0" stop-color="#5dded9"/><stop offset="1" stop-color="#31aba7"/></linearGradient></defs><g transform="translate(-117 -107)"><g transform="translate(-139 33)"><circle cx="24" cy="24" r="24" transform="translate(256 74)" fill="url(#a)"/><path d="M-519,2187a24,24,0,0,1,24,24A24,24,0,0,1-519,2187Z" transform="translate(775 -2089)" fill="rgba(255,255,255,0.24)" opacity="0.61"/><path d="M0,24A24,24,0,0,0,24,0,24,24,0,0,0,0,24Z" transform="translate(304 122) rotate(180)" fill="rgba(255,255,255,0.24)" opacity="0.61"/></g><g transform="translate(68.4 -42.1)"><path d="M142.714,258.7a1.157,1.157,0,0,0,1.157,1.157h4.461a1.157,1.157,0,1,0,0-2.314h-4.464A1.154,1.154,0,0,0,142.714,258.7Zm19.692,2.539h-.7a.74.74,0,0,0,.7-.739Zm-21.106,0h.7a.74.74,0,0,1-.7-.739Zm21.106-8.623h-.7a.74.74,0,0,1,.7.739Zm-2.249-5.719h-.7a.74.74,0,0,1,.7.739ZM141.308,244h.7a.74.74,0,0,0-.7.739Z" transform="translate(-79.395 -79.589)" fill="#fff"/><path d="M83.485,170.734H64.473a1.157,1.157,0,1,0,0,2.314H83.011v8.609H61.905V164.414h8.107l1.487,2.3a1.156,1.156,0,0,0,1.019.607h8.236v1.789a1.157,1.157,0,1,0,2.314,0v-2.348a1.921,1.921,0,0,0-1.913-1.744H79.617v-.006H73.152l-1.521-2.35-.017-.025a1.159,1.159,0,0,0-.973-.533H63.062v0H61.524a1.922,1.922,0,0,0-1.922,1.922v.014h0V182.2a1.919,1.919,0,0,0,1.707,1.766H83.513a1.919,1.919,0,0,0,1.814-1.662v-9.831A1.93,1.93,0,0,0,83.485,170.734Z" transform="translate(0 0)" fill="#fff"/></g></g></svg>