<svg xmlns="http://www.w3.org/2000/svg" xmlns:xlink="http://www.w3.org/1999/xlink" width="48" height="48" viewBox="0 0 48 48"><defs><linearGradient id="a" x1="0.5" x2="0.5" y2="0.681" gradientUnits="objectBoundingBox"><stop offset="0" stop-color="#fbb15d"/><stop offset="1" stop-color="#ff6f00"/></linearGradient></defs><g transform="translate(-29 -107)"><g transform="translate(-227 33)"><circle cx="24" cy="24" r="24" transform="translate(256 74)" fill="url(#a)"/><path d="M-519,2187a24,24,0,0,1,24,24A24,24,0,0,1-519,2187Z" transform="translate(775 -2089)" fill="rgba(255,255,255,0.24)" opacity="0.63"/><path d="M0,24A24,24,0,0,0,24,0,24,24,0,0,0,0,24Z" transform="translate(304 122) rotate(180)" fill="rgba(255,255,255,0.24)" opacity="0.63"/></g><path d="M1.12-11.424H5.94q4.153,0,4.153,3.653,0,3.687-4.185,3.687H2.9V.6H1.12ZM2.9-9.858V-5.65h2.9a2.971,2.971,0,0,0,1.922-.505,2.025,2.025,0,0,0,.6-1.616A1.838,1.838,0,0,0,7.7-9.353a2.941,2.941,0,0,0-1.905-.505Zm8.843-1.566h4.82q4.153,0,4.153,3.653,0,3.687-4.185,3.687H13.513V.6H11.738Zm1.775,1.566V-5.65h2.9a2.971,2.971,0,0,0,1.922-.505,2.025,2.025,0,0,0,.6-1.616,1.838,1.838,0,0,0-.619-1.582,2.941,2.941,0,0,0-1.905-.505Zm7.947-1.566h9.527v1.566H27.111V.6H25.353V-9.858H21.46Z" transform="translate(37 136)" fill="#fff"/></g></svg>