<svg xmlns="http://www.w3.org/2000/svg" width="200" height="200" viewBox="0 0 200 200">
  <defs>
    <style>
      .cls-1 {
        fill: #8ecbff;
      }

      .cls-2 {
        fill: #fff;
      }
    </style>
  </defs>
  <g id="组_346" data-name="组 346" transform="translate(-1053 -44)">
    <rect id="矩形_237" data-name="矩形 237" class="cls-1" width="200" height="200" transform="translate(1053 44)"/>
    <path id="路径_232" data-name="路径 232" class="cls-2" d="M50.568,72.827a5.94,5.94,0,0,1-4.206-1.741,27.939,27.939,0,0,1,0-39.47L68.324,9.655a27.908,27.908,0,1,1,39.47,39.467L97.755,59.16a5.947,5.947,0,1,1-8.41-8.41L99.384,40.712A16.013,16.013,0,0,0,76.736,18.067L54.775,40.028a16.03,16.03,0,0,0,0,22.645,5.947,5.947,0,0,1-4.206,10.154ZM29.494,115.86A27.908,27.908,0,0,1,9.76,68.218L19.8,58.179a5.947,5.947,0,1,1,8.41,8.41L18.17,76.628A16.013,16.013,0,0,0,40.818,99.273L62.779,77.311a16.03,16.03,0,0,0,0-22.645,5.947,5.947,0,1,1,8.41-8.41,27.94,27.94,0,0,1,0,39.47L49.227,107.688a27.71,27.71,0,0,1-19.734,8.173Z" transform="translate(1093.311 86.432)"/>
  </g>
</svg>
