<svg xmlns="http://www.w3.org/2000/svg" width="19.176" height="25.558" viewBox="0 0 19.176 25.558"><defs><style>.a{fill:#0089ff;}</style></defs><path class="a" d="M143.978,0H131.2A3.2,3.2,0,0,0,128,3.195V22.363a3.2,3.2,0,0,0,3.2,3.195h12.781a3.2,3.2,0,0,0,3.2-3.195V3.195A3.2,3.2,0,0,0,143.978,0Zm1.6,22.363a1.6,1.6,0,0,1-1.6,1.6H131.2a1.6,1.6,0,0,1-1.6-1.6V3.195a1.6,1.6,0,0,1,1.6-1.6h12.781a1.6,1.6,0,0,1,1.6,1.6Zm-7.992-5.583a2.4,2.4,0,1,0,2.4,2.4A2.4,2.4,0,0,0,137.584,16.78Zm0,3.195a.8.8,0,1,1,.8-.8A.8.8,0,0,1,137.584,19.974Zm1.6-16.777h-3.195a.8.8,0,1,0,0,1.6h3.195a.8.8,0,1,0,0-1.6Z" transform="translate(-128)"/></svg>