<?xml version="1.0" standalone="no"?><!DOCTYPE svg PUBLIC "-//W3C//DTD SVG 1.1//EN" "http://www.w3.org/Graphics/SVG/1.1/DTD/svg11.dtd"><svg t="1570521748127" class="icon" viewBox="0 0 1024 1024" version="1.1" xmlns="http://www.w3.org/2000/svg" p-id="11331" xmlns:xlink="http://www.w3.org/1999/xlink" width="200" height="200"><defs><style type="text/css"></style></defs><path d="M972.752969 563.249031V602.600029c-12.775999 0.653-25.558998 1.859-38.328998 1.866-193.552987 0.126-387.112974 0.09-580.65996 0.09h-40.579997c3.999 19.909999 5.366 34.004998 9.703999 47.072996 24.823998 74.729995 80.437995 117.314992 150.12499 140.592991 112.986992 37.739997 225.372985 29.209998 335.540977-14.385999 24.283998-9.605999 47.750997-21.400999 74.542995-33.518998 0 69.674995 0.7 135.191991-0.862 200.650986-0.202 8.402999-10.502999 20.674999-18.897999 24.142999-129.977991 53.594996-263.867982 70.546995-401.736973 39.219997-290.40598-65.957995-406.597972-425.575971-210.134985-650.809955 37.235997-42.697997 81.507994-76.625995 131.751991-99.041994L307.712014 425.250041h356.370976c4.636-58.037996-4.627-111.025992-33.323998-158.959989-23.256998-38.876997-56.939996-63.459996-102.261993-71.725995-148.02599-27.009998-271.714981 22.019998-376.779974 126.371991-33.930998 33.705998-63.164996 72.325995-100.469994 115.558992 11.912999-45.510997 19.683999-83.951994 31.987998-120.811992C178.323023 30.920068 497.062001-87.641924 740.763984 70.840065c109.343993 71.099995 166.386989 179.495988 198.069987 302.989979 15.890999 61.920996 22.899998 126.207991 33.918998 189.418987z" fill="#79B7FF" p-id="11332"></path></svg>