<?xml version="1.0" standalone="no"?>
<!DOCTYPE svg PUBLIC "-//W3C//DTD SVG 1.1//EN" "http://www.w3.org/Graphics/SVG/1.1/DTD/svg11.dtd" >
<!--
2013-9-30: Created.
-->
<svg>
<metadata>
Created by iconfont
</metadata>
<defs>

<font id="iconfont" horiz-adv-x="1024" >
  <font-face
    font-family="iconfont"
    font-weight="500"
    font-stretch="normal"
    units-per-em="1024"
    ascent="896"
    descent="-128"
  />
    <missing-glyph />
    
    <glyph glyph-name="jia" unicode="&#59065;" d="M512.5 373c-6.4 0-11.5 5.1-11.5 11.5s5.1 11.5 11.5 11.5 11.5-5.1 11.5-11.5-5.1-11.5-11.5-11.5z m0 21.3c-5.4 0-9.8-4.4-9.8-9.8s4.4-9.8 9.8-9.8 9.8 4.4 9.8 9.8-4.4 9.8-9.8 9.8z m0.8-10.6v-4.9h-1.7v4.9h-4.9v1.6h4.9v4.9h1.7v-4.9h4.9v-1.6h-4.9zM512-128C229.2-128 0 101.20000000000005 0 384S229.2 896 512 896s512-229.2 512-512-229.2-512-512-512z m-0.5 949.8C269.3 821.8 73 625.5 73 383.4 73 141.29999999999995 269.3-55 511.5-55c242.1 0 438.4 196.3 438.4 438.4 0 242.1-196.3 438.4-438.4 438.4z m36.8-474.2v-219.8h-74.2V347.6H255.4v73.1h218.7V640.5h74.2v-219.8h219.9v-73.1H548.3z"  horiz-adv-x="1024" />

    
    <glyph glyph-name="cellyoucejiantou" unicode="&#58928;" d="M285.786753-128a41.152768 41.152768 0 0 0-29.07768 70.392893l439.468246 439.630691a2.978161 2.978161 0 0 1 0.974671 2.274232 3.3572 3.3572 0 0 1-1.028819 2.490826L256.763221 825.931997A41.152768 41.152768 0 0 0 314.918581 884.141505L754.332678 444.944001a85.554439 85.554439 0 0 0 0-121.184073l-439.359949-439.522394a40.990323 40.990323 0 0 0-29.131828-12.237534z"  horiz-adv-x="1024" />

    
    <glyph glyph-name="soushuo" unicode="&#58885;" d="M240.776 655.1279999999999A302.952 302.952 0 0 1 157.328 384c18.048 81.912 60.48 161.952 126.576 228.096C350.048 678.264 430.088 720.672 512 738.72c-95.28 17.952-197.52-9.864-271.224-83.592zM959.6 93.26400000000001l-114.096 114.096a110.64 110.64 0 0 1-87 31.992c107.304 155.208 91.8 369.744-46.392 507.96-155.568 155.616-407.856 155.616-563.472 0-155.568-155.616-155.568-407.928 0-563.544 138.192-138.216 352.56-153.6 507.864-46.296-2.4-31.2 8.304-63.312 31.992-87l114.096-114.12c43.2-43.104 113.784-43.104 156.888 0 43.32 43.104 43.32 113.712 0.12 156.912zM665.84 230.15999999999997c-130.008-130.008-340.68-130.008-470.64 0-130.008 130.008-130.008 340.728 0 470.736 129.96 130.008 340.632 130.008 470.64 0 129.984-129.912 129.984-340.728 0-470.736z"  horiz-adv-x="1024" />

    
    <glyph glyph-name="danmu" unicode="&#58921;" d="M952.098816 541.142016 264.039424 541.142016C230.126592 541.142016 202.379264 568.914944 202.379264 602.858496L202.379264 602.858496C202.379264 636.803072 230.126592 664.576 264.039424 664.576L952.098816 664.576C986.012672 664.576 1013.76 636.803072 1013.76 602.858496L1013.76 602.858496C1013.76 568.914944 986.012672 541.142016 952.098816 541.142016ZM481.625088 384.001024 481.625088 384C481.625088 350.056448 453.87776 322.28352 419.963904 322.28352L71.901184 322.28352C37.987328 322.28352 10.24 350.056448 10.24 384L10.24 384.001024C10.24 417.944576 37.987328 445.717504 71.901184 445.717504L419.963904 445.717504C453.87776 445.717504 481.625088 417.944576 481.625088 384.001024ZM170.921984 226.859008 236.319744 226.859008C270.232576 226.859008 297.979904 199.08608 297.979904 165.142528L297.979904 165.141504C297.979904 131.197952 270.232576 103.425024 236.319744 103.425024L170.921984 103.425024C137.009152 103.425024 109.261824 131.197952 109.261824 165.141504L109.261824 165.142528C109.261824 199.08608 137.009152 226.859008 170.921984 226.859008ZM591.635456 322.28352C557.722624 322.28352 529.975296 350.056448 529.975296 384L529.975296 384.001024C529.975296 417.944576 557.722624 445.717504 591.635456 445.717504L683.195392 445.717504C717.108224 445.717504 744.855552 417.944576 744.855552 384.001024L744.855552 384C744.855552 350.056448 717.108224 322.28352 683.195392 322.28352L591.635456 322.28352ZM440.308736 226.859008 871.774208 226.859008C905.68704 226.859008 933.434368 199.08608 933.434368 165.142528L933.434368 165.141504C933.434368 131.197952 905.68704 103.425024 871.774208 103.425024L440.308736 103.425024C406.395904 103.425024 378.647552 131.197952 378.647552 165.141504L378.647552 165.142528C378.648576 199.08608 406.395904 226.859008 440.308736 226.859008Z"  horiz-adv-x="1024" />

    
    <glyph glyph-name="yangshi" unicode="&#59159;" d="M512 896a512 512 0 0 1 0-1024 87.7056 87.7056 0 0 1 85.504 85.504c0 23.04-5.632 39.936-22.528 56.832-11.264 16.896-23.04 34.304-23.04 56.832a87.7056 87.7056 0 0 0 85.504 85.504h102.4a281.6 281.6 0 0 1 284.672 284.672C1024 691.2 796.672 896 512 896zM199.168 384a87.7056 87.7056 0 0 0-85.504 85.504 87.7056 87.7056 0 0 0 85.504 85.504 87.7056 87.7056 0 0 0 85.504-85.504A87.7056 87.7056 0 0 0 199.168 384z m170.496 227.84a87.7056 87.7056 0 0 0-85.504 85.504 87.7056 87.7056 0 0 0 85.504 85.504 87.7056 87.7056 0 0 0 85.504-85.504 87.3472 87.3472 0 0 0-85.504-85.504z m284.672 0a87.7056 87.7056 0 0 0-85.504 85.504 85.504 85.504 0 0 0 171.008 0c-0.512-46.08-39.936-85.504-85.504-85.504z m170.496-227.84a87.7056 87.7056 0 0 0-85.504 85.504 85.504 85.504 0 0 0 171.008 0 87.7056 87.7056 0 0 0-85.504-85.504z"  horiz-adv-x="1024" />

    
    <glyph glyph-name="shouye-banke" unicode="&#58913;" d="M444.194971 608.514115l-238.564642-128.515083a45.017458 45.017458 0 0 1-23.608605-40.277148 43.37539 43.37539 0 0 1-1.332244-10.534023v-210.680463a45.141388 45.141388 0 0 1 90.251793 0V412.674231l215.978457 116.277026a45.141388 45.141388 0 1 1-42.724759 79.500893zM542.192369 896L0 594.850867v-602.329249a120.521618 120.521618 0 0 1 120.521618-120.521618h331.295029v150.636531a60.260809 60.260809 0 0 0 60.260809 60.260809h120.521618a60.260809 60.260809 0 0 0 60.260809-60.260809v-150.512601h271.003238a120.521618 120.521618 0 0 1 120.521618 120.521618V594.850867z m451.692718-873.363469a60.260809 60.260809 0 0 0-60.260809-60.260809h-150.636532v90.375723a120.521618 120.521618 0 0 1-120.521618 120.521618h-180.658497a120.521618 120.521618 0 0 1-120.521618-120.521618v-90.375723h-210.680464a60.260809 60.260809 0 0 0-60.260809 60.260809V534.590058L542.192369 775.602312l451.692718-240.919307z"  horiz-adv-x="1084" />

    
    <glyph glyph-name="shouye-wode" unicode="&#58914;" d="M843.033864 253.166776A406.749945 406.749945 0 1 1 104.796739 489.306158a414.520272 414.520272 0 0 1 83.341661-248.061363A419.70984 419.70984 0 0 1 94.86643-22.693842a106.31602 106.31602 0 0 1 107.157572-105.165899h619.157572a107.802761 107.802761 0 0 1 107.157571 97.227262c5.975016 93.047556-21.68398 184.440061-85.305281 283.799255zM184.183108 489.33421a327.447732 327.447732 0 0 0 654.867411 0 320.098181 320.098181 0 0 0-55.570458-182.560596 370.563226 370.563226 0 0 0-51.587113-59.525751 330.645628 330.645628 0 0 0-220.29016-85.333333 322.594784 322.594784 0 0 0-212.351523 79.386369 382.541311 382.541311 0 0 0-53.578786 59.52575 306.745562 306.745562 0 0 0-61.489371 188.367302z m664.825772-513.991672a29.706772 29.706772 0 0 0-27.771203-23.815911H202.024002a27.126014 27.126014 0 0 0-27.771203 27.771203 338.724523 338.724523 0 0 0 69.456059 204.412887A400.185843 400.185843 0 0 1 511.602788 82.50011a404.309446 404.309446 0 0 1 275.860618 108.952881 376.874863 376.874863 0 0 0 61.517422-216.250712zM755.596651 532.842428a297.348236 297.348236 0 0 0 3.955293-43.648477 19.860618 19.860618 0 1 1 39.693184 0 417.605961 417.605961 0 0 1-3.983344 49.623494 20.589963 20.589963 0 0 1-23.815911 15.877273 19.636204 19.636204 0 0 1-15.849222-21.85229z m-244.049967 204.272628a247.472277 247.472277 0 0 0 228.228797-148.842428 19.07517 19.07517 0 0 1 17.868946-11.89393 11.921981 11.921981 0 0 1 7.938637 1.991672 19.636204 19.636204 0 0 1 9.930309 25.807583 286.688582 286.688582 0 0 1-263.966689 172.742494 19.860618 19.860618 0 0 1 0-39.693184z m0-494.131054a137.229016 137.229016 0 0 1 125.026518 79.386368 39.94565 39.94565 0 1 1-71.447732 35.70984 56.496165 56.496165 0 0 0-53.578786-33.662064 59.750164 59.750164 0 0 0-53.578786 33.662064 39.94565 39.94565 0 1 1-71.447731-35.70984 137.229016 137.229016 0 0 1 125.026517-79.274161z"  horiz-adv-x="1024" />

    
    <glyph glyph-name="ziyuan" unicode="&#58915;" d="M174.159396 99.146651a54.179894 54.179894 0 0 1 54.179894-54.179894h208.916309a54.179894 54.179894 0 1 1 0 108.359788H228.202988a54.043593 54.043593 0 0 1-54.043592-54.179894z m922.25084-118.923164h-32.644238a34.654687 34.654687 0 0 1 32.644238 34.620611z m-988.459353 0h32.644239a34.654687 34.654687 0 0 0-32.644239 34.620611z m988.459353 403.827626h-32.644238a34.654687 34.654687 0 0 0 32.644238-34.620612z m-105.327077 267.86676h-32.644238a34.654687 34.654687 0 0 0 32.644238-34.620612zM108.359788 787.776513h32.644238a34.654687 34.654687 0 0 1-32.644238-34.620611zM1118.6274 491.627167H228.305214a54.179894 54.179894 0 1 1 0-108.359788h868.105022v-403.180194H107.950883v807.587102H487.619048l69.650128-107.576054a54.145819 54.145819 0 0 1 47.705567-28.418888h385.733586v-83.791421a54.179894 54.179894 0 0 1 108.359789 0V677.917407A89.95907 89.95907 0 0 1 1009.483877 759.698379H634.688496L563.470899 869.761938l-0.783734 1.192639a54.28212 54.28212 0 0 1-45.592892 24.977272H90.129447A89.993145 89.993145 0 0 1 0.136302 805.938704V-45.196765a89.890919 89.890919 0 0 1 79.9409-82.735084h1039.981365a89.890919 89.890919 0 0 1 84.984061 77.828225V410.221024a90.367974 90.367974 0 0 1-86.415228 81.406143z"  horiz-adv-x="1205" />

    
    <glyph glyph-name="bankexiangqing" unicode="&#58916;" d="M358.093504 895.897589H153.078473A118.142079 118.142079 0 0 1 30.12082 772.939936v-284.600415a118.174183 118.174183 0 0 1 122.957653-123.021861h204.982928a118.174183 118.174183 0 0 1 123.02186 122.957653V773.004144a125.204921 125.204921 0 0 1-122.957653 122.957652z m36.052597-373.849051a62.859291 62.859291 0 0 0-69.857925-69.857925H186.851698a62.955602 62.955602 0 0 0-69.857925 69.857925V726.90305a74.256149 74.256149 0 0 0 75.44399 82.089482h131.946724a78.172816 78.172816 0 0 0 69.857925-82.121586v-204.854512z m-36.052597-229.125005H153.078473A118.174183 118.174183 0 0 1 30.12082 169.901673v-174.323774a118.142079 118.142079 0 0 1 122.957653-123.021861h204.982928a118.142079 118.142079 0 0 1 123.02186 123.021861v174.323774a120.068308 120.068308 0 0 1-122.957653 123.02186m36.052597-239.077191c0-40.964482-18.523907-94.417352-69.857925-94.417351H186.851698c-47.449455 0-69.857925 47.16052-69.857925 94.417351v82.346314a63.212433 63.212433 0 0 0 69.857925 69.890028h137.468582a62.698772 62.698772 0 0 0 69.857925-69.890028v-82.31421M870.277941 894.998682h-205.015031a118.174183 118.174183 0 0 1-122.957653-123.021861v-174.323774a118.142079 118.142079 0 0 1 122.957653-123.02186h204.982927a118.142079 118.142079 0 0 1 123.021861 123.02186V771.976821a120.068308 120.068308 0 0 1-122.957653 123.021861m36.052596-263.604514a62.024591 62.024591 0 0 0-69.857925-69.922132h-137.468582a60.997269 60.997269 0 0 0-69.857925 69.922132V725.907831c0 39.487706 19.840164 82.15369 69.857925 82.15369h137.468582c48.797815 0 69.857925-40.161886 69.857925-82.15369v-94.609974m-36.052596-228.57924h-205.015032a118.142079 118.142079 0 0 1-122.957652-122.957653v-284.600415a118.174183 118.174183 0 0 1 122.957652-123.02186h204.982928a118.174183 118.174183 0 0 1 123.02186 122.957652v284.664623a125.204921 125.204921 0 0 1-122.957652 122.957653z m36.052596-349.321728c0.481557-40.836066-21.06011-94.481559-69.857925-94.353144h-137.468582c-47.449455 0-70.275275 52.265028-69.825821 94.353144v192.622955c0 43.404372 24.077869 69.857925 75.347679 69.857924h131.946724a67.418034 67.418034 0 0 0 69.857925-69.857924v-192.622955z"  horiz-adv-x="1024" />

    
    <glyph glyph-name="chengyuan1" unicode="&#58918;" d="M657.044663 380.696297a288.209904 288.209904 0 1 1-353.161507-1.368843A501.167661 501.167661 0 0 1 0-79.508735a48.491265 48.491265 0 0 1 96.98253 0c0 1.642612 0 3.422108-0.30799 4.962056 3.422108 209.330323 174.527488 391.591775 385.260876 391.591775 211.315145 0 383.002285-183.288084 385.39776-393.542376v-2.874571a48.593928 48.593928 0 0 1 97.153635 0A501.201882 501.201882 0 0 1 657.044663 380.696297zM479.471498 802.265735A193.246417 193.246417 0 1 0 286.225081 609.019318a193.212196 193.212196 0 0 0 193.314859 193.246417zM1253.073146-50.660368a48.491265 48.491265 0 1 1 48.491265 48.354381 48.422823 48.422823 0 0 1-48.491265-48.354381zM1305.32873 136.118266a46.917095 46.917095 0 0 1-8.418385 26.966208 500.51746 500.51746 0 0 1-254.228375 217.646044A288.278346 288.278346 0 0 1 964.213042 878.339187c-0.615979 0-1.197738 0.444874-1.813717 0.615979a48.833476 48.833476 0 0 1-13.414662 1.950602 46.677548 46.677548 0 0 1-14.167525-91.26761 193.34908 193.34908 0 0 0 7.083763-357.71291 65.909793 65.909793 0 0 1 11.429839-124.838486 391.283785 391.283785 0 0 0 261.312138-194.752144 48.491265 48.491265 0 0 1 90.65163 23.954753z"  horiz-adv-x="1350" />

    
    <glyph glyph-name="hudong" unicode="&#58919;" d="M403.414725 896H103.578233A98.190132 98.190132 0 0 1 5.568653 797.99042v-299.8064a98.190132 98.190132 0 0 1 98.00958-98.009581h299.8064a98.190132 98.190132 0 0 1 98.00958 98.009581V797.99042A98.190132 98.190132 0 0 1 403.414725 896z m0-419.331746H103.578233a22.147698 22.147698 0 0 0-22.02733 22.027329V797.99042a22.147698 22.147698 0 0 0 22.02733 22.02733h299.8064a22.147698 22.147698 0 0 0 22.02733-22.02733v-299.8064a22.057422 22.057422 0 0 0-21.997238-21.515766z m516.709395-108.511682h-299.716124a98.190132 98.190132 0 0 1-98.00958-98.00958v-299.8064a98.190132 98.190132 0 0 1 98.00958-98.00958h299.716124a98.190132 98.190132 0 0 1 98.00958 98.00958v299.8064a98.190132 98.190132 0 0 1-98.00958 98.00958z m21.485674-397.846072a22.147698 22.147698 0 0 0-22.027329-22.02733h-299.686033a22.147698 22.147698 0 0 0-22.02733 22.02733v299.836492a22.147698 22.147698 0 0 0 22.02733 22.02733h299.8064a22.147698 22.147698 0 0 0 22.02733-22.02733z m-34.605777 730.151812a347.803109 347.803109 0 0 1-182.417585 96.95636l-0.511564 49.802228a32.378971 32.378971 0 0 1-53.473449 24.073584l-107.970026-93.285139a32.318787 32.318787 0 0 1 0.511564-49.260572l110.226924-91.148608a32.499339 32.499339 0 0 1 52.931794 25.156895l-0.511564 59.221018a272.15187 272.15187 0 0 0 129.395516-72.852685 297.36895 297.36895 0 0 0 80.195127-215.940051 36.712216 36.712216 0 0 1 73.39434 0 380.302448 380.302448 0 0 1-101.680801 267.337154zM461.582523 39.010491l-108.511681 92.773576a32.439155 32.439155 0 0 1-53.473449-24.073585l-0.511564-49.260572a268.270005 268.270005 0 0 0-212.298921 270.978284 36.712216 36.712216 0 0 1-73.39434 0 342.236093 342.236093 0 0 1 285.151606-346.057775l-0.481472-59.702489a32.499339 32.499339 0 0 1 52.931793-25.156895l109.534809 91.208792a32.348879 32.348879 0 0 1 1.053219 49.290664z"  horiz-adv-x="1024" />

    
    <glyph glyph-name="hudong-" unicode="&#58911;" d="M406.016 883.712h-292.864c-52.736 0-95.744-43.008-95.744-95.744v-292.864c0-52.736 43.008-95.744 95.744-95.744h292.864c52.736 0 95.744 43.008 95.744 95.744V787.968c0 52.736-43.008 95.744-95.744 95.744z m0-409.6h-292.864c-11.776 0-21.504 9.728-21.504 21.504V787.968c0 11.776 9.728 21.504 21.504 21.504h292.864c11.776 0 21.504-9.728 21.504-21.504v-292.864c0-11.264-9.728-20.992-21.504-20.992zM910.848 368.128h-292.864c-52.736 0-95.744-43.008-95.744-95.744v-292.864c0-52.736 43.008-95.744 95.744-95.744h292.864c52.736 0 95.744 43.008 95.744 95.744v292.864c0 52.736-43.008 95.744-95.744 95.744z m20.992-388.608c0-11.776-9.728-21.504-21.504-21.504h-292.864c-11.776 0-21.504 9.728-21.504 21.504v292.864c0 11.776 9.728 21.504 21.504 21.504h292.864c11.776 0 21.504-9.728 21.504-21.504v-292.864zM898.048 692.736c-47.104 48.128-108.544 80.896-178.176 94.72l-0.512 48.64c0 26.624-31.744 40.96-52.224 23.552l-105.472-91.136c-14.848-12.8-14.336-35.84 0.512-48.128l107.52-89.088c20.48-16.896 51.712-2.048 51.712 24.576l-0.512 57.856c49.152-12.288 92.16-36.352 126.464-71.168 51.712-52.736 78.848-125.44 78.336-210.944 0-19.968 15.872-35.84 35.84-35.84s35.84 15.872 35.84 35.84c-0.512 102.912-35.328 195.584-99.328 261.12zM462.848 46.592l-105.984 90.624c-20.48 17.408-51.712 3.072-52.224-23.552l-0.512-48.128c-126.976 32.256-207.36 130.56-207.36 264.704 0 19.968-15.872 35.84-35.84 35.84s-35.84-15.872-35.84-35.84c0-173.568 110.592-303.104 278.528-337.92l-0.512-58.368c0-26.624 31.232-41.472 51.712-24.576l107.008 89.088c15.36 12.8 15.36 35.84 1.024 48.128z"  horiz-adv-x="1024" />

    
    <glyph glyph-name="congbendishangchuan" unicode="&#58901;" d="M511.999147-128a508.617783 508.617783 0 0 0-362.018446 149.948595A508.617783 508.617783 0 0 0 0.010773 383.988374 508.660449 508.660449 0 0 0 149.980701 746.049485 508.596451 508.596451 0 0 0 511.999147 895.976747a508.553785 508.553785 0 0 0 362.018446-149.969928A508.639116 508.639116 0 0 0 1023.98752 383.988374a508.596451 508.596451 0 0 0-149.969927-362.018446A508.596451 508.596451 0 0 0 511.999147-128z m-119.037297 767.98256A51.689493 51.689493 0 0 1 341.336356 588.378399v-447.435173a51.689493 51.689493 0 0 1 51.625494-51.604161h240.911862a51.689493 51.689493 0 0 1 51.625495 51.604161V588.357066a51.689493 51.689493 0 0 1-51.625495 51.604162z m120.445265-516.254943a34.452551 34.452551 0 0 0-34.409886 34.409885 34.452551 34.452551 0 0 0 34.409886 34.409886 34.452551 34.452551 0 0 0 34.409885-34.409886 34.452551 34.452551 0 0 0-34.409885-34.409885z m137.703539 103.250989H375.746241V571.141457h275.364413V226.99993900000004z m-68.862436 369.975598H444.587344v17.215609h137.660874v-17.194276z"  horiz-adv-x="1024" />

    
    <glyph glyph-name="wangyelianjie" unicode="&#58908;" d="M512 384m-512 0a512 512 0 1 1 1024 0 512 512 0 1 1-1024 0ZM465.216 307.882667a27.989333 27.989333 0 0 0-19.818667 8.213333 131.626667 131.626667 0 0 0 0 185.941333l103.466667 103.466667a131.477333 131.477333 0 1 0 185.962667-185.92l-47.296-47.296a28.010667 28.010667 0 1 0-39.616 39.616l47.296 47.296a75.434667 75.434667 0 0 1-106.666667 106.666667l-103.466667-103.466667a75.52 75.52 0 0 1 0-106.666667 28.010667 28.010667 0 0 0-19.818666-47.829333z m-99.285333-202.666667a131.477333 131.477333 0 0 0-92.992 224.384l47.317333 47.317333a28.010667 28.010667 0 1 0 39.616-39.616l-47.296-47.317333a75.434667 75.434667 0 0 1 106.666667-106.666667l103.466666 103.466667a75.52 75.52 0 0 1 0 106.666667 28.010667 28.010667 0 1 0 39.616 39.616 131.626667 131.626667 0 0 0 0-185.962667l-103.466666-103.466667a130.56 130.56 0 0 0-92.970667-38.4z"  horiz-adv-x="1024" />

    
    <glyph glyph-name="bofang" unicode="&#58931;" d="M-49.090984-71.816448M1040.852568-71.816448M84.679256-41.49376M438.792792 558.868224 735.95964 299.190016 438.792792 39.97568ZM84.679256 299.653888c0-124.5184 42.580992-228.202496 130.994176-316.613632 87.49056-87.486464 193.494016-131.693568 317.07648-131.462144 123.60192 0.232448 228.6592 43.97568 316.146688 131.462144 87.494656 87.486464 131.692544 193.021952 131.472384 316.613632-0.242688 124.055552-43.976704 229.588992-131.472384 317.07648C761.408088 704.217856 656.351832 747.729664 532.749912 747.729664c-124.045312 0-229.817344-43.281408-317.07648-130.999296C127.951448 528.549632 84.679256 424.171264 84.679256 299.653888zM979.895896-41.49376"  horiz-adv-x="1064" />

    
    <glyph glyph-name="zanting" unicode="&#59049;" d="M512-212c-282.304 0-512 229.696-512 512s229.696 512 512 512 512-229.696 512-512S794.304-212 512-212zM512 763.232C256.576 763.232 48.768 555.424 48.768 300S256.576-163.168 512-163.168 975.168 44.576 975.168 300 767.424 763.232 512 763.232zM381.312 628c33.984 0 61.632-27.648 61.632-61.632l0-506.112c0-33.984-27.648-61.632-61.568-61.632l0 0c-33.984 0-61.696 27.648-61.632 61.632L319.744 566.368C319.68 600.416 347.264 628 381.312 628L381.312 628zM642.688 628c33.984 0 61.632-27.648 61.632-61.632l0-506.112c0-33.984-27.648-61.632-61.632-61.632l0 0c-33.984 0-61.632 27.648-61.632 61.632L581.056 566.368C580.992 600.416 608.576 628 642.688 628L642.688 628z"  horiz-adv-x="1024" />

    
    <glyph glyph-name="shou" unicode="&#58960;" d="M859.593068 459.057463c-10.769274 0.206708-122.532731 0.733711-196.027605 1.041726l-76.135004 0.318248 24.181749 72.198346c9.246595 27.597545 13.737886 63.934125 13.737886 111.083981 0 19.101033-1.657756 38.337143-4.949732 57.362452l-2.960425 12.787234c-4.906753 22.199605-22.850427 37.70474-43.653219 37.70474-25.457812 0-37.061081-26.178219-37.061081-50.502208l-0.073678-4.731768-0.025583-1.182942 0.159636-2.003634-0.079818-3.022847c-3.100618-115.697045-81.539085-215.459167-189.356672-249.180176l-0.620124-404.631644 446.036659 0.030699c4.708232 0 5.385661 0 15.752776 6.856152 6.004761 4.003174 11.150968 9.568936 14.9679 16.176424 10.352789 41.878806 72.005964 319.870168 76.999698 350.84667 0.340761 7.913227-0.798179 19.175735-7.492648 30.446429C886.43132 451.665099 878.843504 458.232678 859.593068 459.057463zM130.0351 428.322461l73.955362 0 0-392.238382-73.955362 0 0 392.238382ZM301.695738-18.792763c-0.075725-0.031722-0.071631-0.039909 0-0.039909 0.057305 0 0.147356 0 0.261966 0.008186 0.127913-0.008186 0.227174-0.008186 0.280386-0.008186 0.084934 0 0.090051 0.008186 0 0.039909 0.103354 0.020466 0.181125 0.039909 0.192382 0.051165l-0.004093 0-0.927115 0C301.509497-18.752854 301.590338-18.77332 301.695738-18.792763zM220.329593 483.357915 113.69597 483.357915c-21.385053 0-38.695301-17.86488-38.695301-39.885406l0-422.542572c0-22.014386 17.310248-39.884382 38.695301-39.884382l106.633622 0c21.388123 0 38.696324 17.869996 38.696324 39.884382L259.025916 443.47251C259.025916 465.490989 241.717715 483.357915 220.329593 483.357915zM203.990462 36.085102 130.0351 36.085102 130.0351 428.322461l73.955362 0L203.990462 36.085102zM940.307368 468.759429c-18.625196 31.272237-45.690622 43.899836-78.431304 45.282323-1.698688 0.265036-198.078311 1.089821-198.078311 1.089821 13.009292 38.821167 16.58677 85.09098 16.58677 128.563074 0 28.210505-3.062755 55.652508-8.722662 82.08246l-0.481977-0.053212c-10.237155 46.318932-49.915853 80.861656-97.393167 80.861656-55.252395 0-92.093465-47.889707-92.093465-105.536638 0-3.243881-0.25685-6.355755 0-9.465582-2.894933-107.796098-88.025822-194.451714-189.311647-206.336392l-0.772596-56.925501 57.432037 13.153578c106.943684 34.232662 184.579879 133.543506 187.665147 248.632707l0.079818 3.022847-0.159636 2.003634 0.025583 1.182942 0.073678 4.731768c0 24.323988 11.603269 50.502208 37.061081 50.502208 20.802792 0 38.746466-15.504112 43.653219-37.70474l2.960425-12.787234c3.291976-19.024286 4.949732-38.261419 4.949732-57.362452 0-47.15088-4.491291-83.486436-13.737886-111.083981l-24.181749-72.198346 76.135004-0.318248c73.493851-0.308015 185.257308-0.835018 196.027605-1.041726 19.25146-0.823761 26.839275-7.391341 33.399691-18.403139 6.694469-11.271718 7.833409-22.534226 7.492648-30.446429-4.993734-30.976502-66.646909-308.967864-76.999698-350.84667-3.815909-6.607488-8.963139-12.173251-14.9679-16.176424-10.367115-6.856152-11.044544-6.856152-15.752776-6.856152l-411.407977-0.028653 0 0-5.852288 0-28.776394-0.002047 0 0.002047-55.034431 0-0.084934-55.04057 9.886161 0c-0.01228 0.019443 0.106424 0.027629 0.460488 0.027629 0.369414 0 0.485047-0.00921 0.470721-0.027629l490.338654 0.027629c0.109494 0 0.210801 0 0.313132 0 18.503423 0 28.960589 4.852518 45.816488 16.003486 16.068977 10.723226 28.220738 25.374924 36.141128 41.933041 2.192945 3.326768 78.313623 345.32491 80.260975 365.617072C956.81432 426.48358 952.125531 448.871473 940.307368 468.759429z"  horiz-adv-x="1024" />

    
    <glyph glyph-name="icon--" unicode="&#59150;" d="M819.2 768H204.8C148.48 768 102.4 721.92 102.4 665.6v-614.4c0-56.32 46.08-102.4 102.4-102.4h614.4c56.32 0 102.4 46.08 102.4 102.4V665.6c0 56.32-46.08 102.4-102.4 102.4z m51.2-716.8c0-28.16-23.04-51.2-51.2-51.2H204.8c-28.16 0-51.2 23.04-51.2 51.2V665.6c0 28.16 23.04 51.2 51.2 51.2h614.4c28.16 0 51.2-23.04 51.2-51.2v-614.4z m-409.6 51.2h-168.96l174.08 174.08-35.84 35.84-174.08-174.08V307.2c0 15.36-10.24 25.6-25.6 25.6s-25.6-10.24-25.6-25.6v-230.4c0-7.68 2.56-12.8 7.68-17.92 5.12-5.12 12.8-7.68 17.92-7.68h230.4c15.36 0 25.6 10.24 25.6 25.6 0 12.8-10.24 25.6-25.6 25.6zM793.6 665.6h-230.4c-15.36 0-25.6-10.24-25.6-25.6s10.24-25.6 25.6-25.6h168.96l-174.08-174.08 35.84-35.84 174.08 174.08V409.6c0-15.36 10.24-25.6 25.6-25.6s25.6 10.24 25.6 25.6v230.4c0 7.68-2.56 12.8-7.68 17.92-5.12 5.12-10.24 7.68-17.92 7.68z"  horiz-adv-x="1024" />

    
    <glyph glyph-name="collect" unicode="&#58899;" d="M773.458-109.42999999999995c-14.403 0-30.592 4.132-45.599 11.638L513.567 9.389999999999986 297.948-97.61800000000005c-13.655-7.27-29.286-11.09-45.225-11.09a96.164 96.164 0 0 0-57.549 18.842c-30.177 22.64-45.64 61.85-38.502 97.561l44.099 228.772L31.744 394.004a104.059 104.059 0 0 0-26.281 100.66l0.338 1.162c12.288 36.828 42.772 62.633 79.734 67.584l234.839 42.7L425.779 820.189c16.932 33.895 51.37 55.675 87.788 55.675 37.99 0 73.318-22.6 88.13-56.29l105.068-213.4L941.64 565.11a95.672 95.672 0 0 0 78.264-68.373 98.97 98.97 0 0 0-24.474-101.002l-0.578-0.579-168.55-158.72L868.9 7.2549999999999955c6.86-36.649-7.716-73.672-38.062-96.742a90.409 90.409 0 0 0-57.38-19.943z m-259.81 196.055l227.667-113.853c6.686-3.37 14.392-5.489 19.665-5.489 8.116 0 15.652 2.499 21.187 7.117l1.03 0.85c12.937 9.707 19.245 25.134 16.414 40.238l-45.814 246.804 181.212 170.65c11.126 11.28 14.93 27.433 9.995 42.286l-0.497 1.562a37.31 37.31 0 0 1-30.971 27.003l-1.034 0.163L661.76 547.79 548.91 777.01c-5.478 12.805-20.347 22.098-35.359 22.098-14.75 0-28.861-9.236-36.009-23.496L365.414 547.8910000000001l-252.062-45.788c-15.31-1.92-27.203-12.088-32.697-27.945-3.901-14.49 0.722-31.949 11.372-42.834l181.422-169.057-47.61-246.933c-2.863-14.28 3.9-30.714 16.409-40.1 6.272-4.715 14.397-7.316 22.917-7.316 6.569 0 12.866 1.531 18.294 4.45l0.783 0.46 229.407 113.797z"  horiz-adv-x="1024" />

    
    <glyph glyph-name="zanwushuju" unicode="&#58882;" d="M958.66 607.357h0.025L511.996 830.696 66.12 607.764h-0.83V160.65l446.707-223.345L958.711 160.65V607.357h-0.05z m-446.664 169.23l335.907-168.38-127.914-64.487-337.52 167.877 129.527 64.99z m-188.06-96.672l341.852-164.713L511.972 440.7 176.095 607.357l147.84 72.558zM121.125 550.86h17.754l-17.754 0.653V579.43l362.96-181.485v-390.872l-362.96 181.482V550.86z m781.74-27.275v-335.031L539.906 7.072V397.944l362.962 181.485v-55.844z"  horiz-adv-x="1024" />

    
    <glyph glyph-name="tianjia" unicode="&#58926;" d="M520.192-117.76c-6.144 0-10.24 4.096-10.24 10.24s4.096 10.24 10.24 10.24c32.768 0 67.584 4.096 100.352 12.288 6.144 2.048 10.24-2.048 12.288-8.192s-2.048-10.24-8.192-12.288c-34.816-8.192-69.632-12.288-104.448-12.288z m-100.352 8.192c-2.048 0-2.048 0 0 0-36.864 6.144-69.632 16.384-102.4 30.72-6.144 2.048-8.192 8.192-6.144 14.336 2.048 6.144 8.192 8.192 14.336 6.144 30.72-12.288 63.488-22.528 96.256-28.672 6.144-2.048 8.192-6.144 8.192-12.288-2.048-6.144-6.144-10.24-10.24-10.24z m299.008 36.864c-4.096 0-8.192 2.048-10.24 6.144-2.048 6.144 0 10.24 4.096 14.336 30.72 14.336 59.392 30.72 86.016 51.2 4.096 4.096 10.24 2.048 14.336-2.048 4.096-4.096 2.048-10.24-2.048-14.336-28.672-20.48-57.344-38.912-90.112-53.248 0-2.048 0-2.048-2.048-2.048z m-487.424 43.008c-2.048 0-4.096 0-6.144 2.048-28.672 20.48-55.296 43.008-79.872 67.584-4.096 4.096-4.096 10.24 0 14.336 4.096 4.096 10.24 4.096 14.336 0 22.528-24.576 49.152-47.104 75.776-65.536 4.096-4.096 6.144-10.24 2.048-14.336 0-2.048-2.048-4.096-6.144-4.096z m649.216 79.872c-2.048 0-4.096 0-6.144 2.048-4.096 4.096-4.096 10.24 0 14.336 22.528 24.576 40.96 53.248 57.344 81.92 2.048 4.096 8.192 6.144 14.336 4.096 4.096-2.048 6.144-8.192 4.096-14.336-16.384-30.72-36.864-59.392-59.392-86.016-4.096-2.048-6.144-2.048-10.24-2.048z m-788.48 67.584c-4.096 0-6.144 2.048-8.192 4.096-18.432 30.72-32.768 61.44-45.056 94.208-2.048 6.144 0 10.24 6.144 12.288 6.144 2.048 10.24 0 12.288-6.144 10.24-30.72 24.576-61.44 43.008-90.112 2.048-4.096 2.048-10.24-4.096-14.336h-4.096z m888.832 108.544h-2.048c-6.144 2.048-8.192 8.192-6.144 12.288 10.24 32.768 16.384 65.536 20.48 98.304 0 6.144 6.144 10.24 10.24 10.24 6.144 0 10.24-6.144 10.24-10.24-4.096-34.816-10.24-69.632-20.48-102.4-4.096-4.096-8.192-8.192-12.288-8.192z m-956.416 83.968c-4.096 0-10.24 4.096-10.24 8.192-2.048 22.528-4.096 43.008-4.096 65.536 0 12.288 0 26.624 2.048 38.912 0 6.144 6.144 10.24 10.24 10.24 6.144 0 10.24-6.144 10.24-10.24 0-12.288-2.048-24.576-2.048-36.864 0-20.48 2.048-43.008 4.096-63.488 0-6.144-4.096-12.288-10.24-12.288z m974.848 118.784c-6.144 0-10.24 4.096-10.24 8.192-4.096 32.768-10.24 65.536-20.48 98.304-2.048 6.144 2.048 10.24 6.144 12.288 6.144 2.048 10.24-2.048 12.288-6.144 10.24-32.768 18.432-67.584 22.528-102.4 2.048-4.096-2.048-10.24-10.24-10.24 2.048 0 2.048 0 0 0z m-958.464 83.968h-2.048c-6.144 2.048-8.192 8.192-6.144 12.288 10.24 32.768 22.528 65.536 38.912 96.256 2.048 4.096 8.192 6.144 14.336 4.096 4.096-2.048 6.144-8.192 4.096-14.336-16.384-28.672-28.672-61.44-38.912-92.16-2.048-4.096-6.144-6.144-10.24-6.144z m894.976 108.544c-4.096 0-6.144 2.048-8.192 4.096-16.384 28.672-36.864 55.296-59.392 79.872-4.096 4.096-4.096 10.24 0 14.336 4.096 4.096 10.24 4.096 14.336 0 22.528-26.624 45.056-53.248 61.44-83.968 2.048-4.096 2.048-10.24-4.096-14.336h-4.096z m-798.72 69.632c-2.048 0-4.096 0-6.144 2.048-4.096 4.096-4.096 10.24-2.048 14.336 22.528 26.624 47.104 51.2 75.776 71.68 4.096 4.096 10.24 2.048 14.336-2.048 4.096-4.096 2.048-10.24-2.048-14.336-26.624-20.48-51.2-43.008-71.68-69.632-2.048 0-6.144-2.048-8.192-2.048z m661.504 81.92c-2.048 0-4.096 0-6.144 2.048-26.624 20.48-55.296 36.864-86.016 49.152-6.144 2.048-8.192 8.192-6.144 14.336 2.048 6.144 8.192 8.192 14.336 6.144 32.768-14.336 61.44-30.72 90.112-51.2 4.096-4.096 6.144-10.24 2.048-14.336-2.048-6.144-4.096-6.144-8.192-6.144z m-501.76 43.008c-4.096 0-8.192 2.048-10.24 6.144-2.048 4.096 0 10.24 4.096 14.336 30.72 14.336 63.488 26.624 98.304 34.816 6.144 2.048 10.24-2.048 12.288-8.192 2.048-6.144-2.048-10.24-8.192-12.288-32.768-8.192-63.488-20.48-94.208-34.816h-2.048z m317.44 38.912h-2.048c-38.912 8.192-77.824 12.288-116.736 10.24-6.144 0-10.24 4.096-10.24 10.24s4.096 10.24 10.24 10.24c40.96 2.048 81.92-2.048 120.832-10.24 6.144-2.048 8.192-6.144 8.192-12.288-2.048-6.144-6.144-8.192-10.24-8.192zM737.28 394.24h-215.04V609.28h-20.48v-215.04H286.72v-20.48h215.04V158.72h20.48v215.04h215.04z"  horiz-adv-x="1024" />

    
    <glyph glyph-name="icon-test" unicode="&#59116;" d="M512 896C228.894118 896 0 667.1058820000001 0 384s228.894118-512 512-512 512 228.894118 512 512S795.105882 896 512 896z m0-933.647059C280.094118-37.64705900000001 90.352941 152.09411799999998 90.352941 384S280.094118 805.647059 512 805.647059s421.647059-189.741176 421.647059-421.647059-189.741176-421.647059-421.647059-421.647059zM240.941176 429.176471h542.117648v-90.352942H240.941176z"  horiz-adv-x="1024" />

    
    <glyph glyph-name="tuichu" unicode="&#58917;" d="M765.824 173.792 765.824 301.408 446.72 301.408 446.72 429.088l319.04 0L765.76 556.768l191.424-191.488L765.824 173.792zM702.016 237.6l0-255.232L382.912-17.632l0-191.488L0-17.632 0 812l702.016 0 0-319.104L638.272 492.896 638.272 748.192 127.68 748.192l255.232-127.68 0-574.336 255.36 0L638.272 237.6 702.016 237.6z"  horiz-adv-x="1024" />

    
    <glyph glyph-name="yuanchengzhuomian2" unicode="&#58920;" d="M840.66816 312.48896 993.26976 472.81664 588.62592 472.81664 588.62592 47.68256 737.47968 204.07296 934.84544 6.7072 1024 6.7072 1024 129.152ZM540.4416 255.81568 63.17568 255.81568 63.17568 772.21888 920.192 772.21888 920.192 518.59456 983.36768 518.59456 983.36768 839.51616 0 839.51616 0 48.42496 540.4416 48.42496ZM260.03456 16.37888l463.29856 0 0-87.90016-463.29856 0 0 87.90016Z"  horiz-adv-x="1024" />

    
    <glyph glyph-name="writin-blackboard" unicode="&#58987;" d="M511.974 199.795v-31.36h67.821l-366.496 366.49v-366.496h45.734v49.242h18.074v-49.242h9.222v31.36h18.067v-31.36h13.549v31.36h18.074v-31.36h8.941v49.242h18.067v-49.242h9.222v31.36h18.067v-31.36h13.555v31.36h18.067v-31.36h13.037v49.242h18.067v-49.242h9.222v31.36h18.074v-31.36h13.549v31.36h18.086zM277.107 231.488v162.074l162.074-162.074h-162.074zM814.682 691.2h-605.363c-44.915 0-81.318-36.403-81.318-81.318v-451.763c0-44.915 36.403-81.318 81.318-81.318h605.363c44.915 0 81.318 36.403 81.318 81.318v451.763c0 44.915-36.403 81.318-81.318 81.318zM850.822 176.186c0-29.939-24.275-54.214-54.214-54.214l-569.222-0c-29.939 0-54.214 24.275-54.214 54.214v415.629c0 29.939 24.275 54.214 54.214 54.214h569.222c29.939 0 54.214-24.275 54.214-54.214l0-415.629z"  horiz-adv-x="1024" />

    
    <glyph glyph-name="bianji1" unicode="&#59152;" d="M327.14 208.788l11.149-11.149c9.236-9.235 24.211-9.235 33.446 0L888.67 715.574c9.235 9.235 9.235 24.209 0 33.446l-11.149 11.149c-9.236 9.235-24.211 9.235-33.446 0L327.14 242.234C317.905 232.999 317.905 218.025 327.14 208.788zM896.374 351.744c0 8.441-6.843 15.284-15.284 15.284l-33.433 0c-8.441 0-15.284-6.843-15.284-15.284l0-33.433c0-0.202 0.022-0.399 0.03-0.599l0-237.81c0-8.835-7.163-15.998-16-15.998l-608 0c-8.837 0-16 7.163-16 15.998L192.403 687.907c0 8.835 7.163 15.998 16 15.998L544.648 703.905c0.013 0 0.026-0.002 0.04-0.002l33.433 0c8.441 0 15.284 6.843 15.284 15.284l0 33.432c0 8.441-6.843 15.284-15.284 15.284L560.905 767.903l0 0.003-416.501 0c-8.837 0-16-7.163-16-15.998l0-736.005c0-8.835 7.163-15.998 16-15.998l736 0c8.837 0 16.001 7.163 16.001 15.998l0 318.5-0.031 0L896.374 351.744z"  horiz-adv-x="1024" />

    
    <glyph glyph-name="tongji1" unicode="&#59594;" d="M148.58406 12.325979h726.83188V-20.711462H148.58406zM214.659965 524.40989h132.150785v-462.529285H214.659965zM445.924095 788.712485h132.150786v-726.83188H445.924095zM677.188226 326.1832h132.150786v-264.302595H677.188226z"  horiz-adv-x="1024" />

    
    <glyph glyph-name="fayan" unicode="&#58887;" d="M985.6-51.2l-6.4 6.4c-44.8 64-96 140.8-185.6 147.2h-19.2c64 57.6 115.2 147.2 121.6 236.8 6.4 89.6-19.2 172.8-83.2 230.4-83.2 76.8-204.8 102.4-313.6 64-76.8-25.6-134.4-76.8-166.4-147.2-44.8-115.2-32-230.4 32-320-38.4 19.2-64 51.2-83.2 83.2-38.4 57.6-44.8 172.8-12.8 243.2 12.8 32 32 51.2 44.8 57.6 32 6.4 57.6 38.4 83.2 83.2 19.2 38.4 38.4 83.2 12.8 115.2H384s-6.4 0-12.8-6.4v12.8c6.4 64-12.8 115.2-64 128-12.8 6.4-32 0-44.8 0-32-12.8-57.6-44.8-70.4-70.4-25.6-51.2-38.4-108.8-38.4-166.4 0-19.2-6.4-32-12.8-44.8-64-102.4-83.2-192-76.8-326.4 6.4-108.8 64-262.4 153.6-326.4 6.4 0 6.4-6.4 12.8-6.4 12.8-12.8 25.6-19.2 32-32v-6.4c0-6.4 6.4-12.8 12.8-25.6 12.8-6.4 32-6.4 38.4-6.4h640c6.4 0 32 0 44.8 19.2 6.4 12.8 6.4 32-12.8 57.6zM512 595.2c89.6 32 198.4 6.4 268.8-57.6 51.2-44.8 76.8-115.2 70.4-192 0-12.8 0-19.2-6.4-32-96 12.8-115.2 89.6-115.2 96 0 6.4-6.4 12.8-12.8 19.2-6.4 0-12.8 0-19.2-6.4-102.4-89.6-288-64-345.6-51.2 0 32 12.8 64 25.6 96C403.2 524.8 448 576 512 595.2zM352 326.4c64-12.8 230.4-32 345.6 38.4 19.2-38.4 64-83.2 134.4-96-25.6-64-70.4-128-121.6-160-83.2 0-115.2-12.8-121.6-25.6-12.8 12.8-51.2 25.6-128 44.8-64 44.8-102.4 121.6-108.8 198.4z m326.4-262.4l-32-32c-6.4 6.4-12.8 19.2-19.2 25.6 12.8 0 25.6 6.4 51.2 6.4z m-121.6-6.4c0-6.4-6.4-12.8-19.2-19.2l-38.4 38.4c25.6-6.4 44.8-12.8 57.6-19.2z m390.4-140.8h-640-6.4v6.4c-6.4 25.6-32 38.4-44.8 51.2-6.4 0-6.4 6.4-12.8 6.4-76.8 57.6-128 198.4-134.4 294.4-6.4 128 12.8 204.8 70.4 300.8 12.8 25.6 19.2 44.8 19.2 70.4 0 51.2 6.4 96 32 140.8 12.8 32 32 44.8 51.2 51.2h19.2c38.4-6.4 32-64 32-83.2 0-19.2-12.8-70.4-19.2-89.6 0-12.8 0-19.2 12.8-25.6 6.4-6.4 19.2 0 25.6 6.4 6.4 6.4 12.8 19.2 19.2 25.6 0-6.4-6.4-19.2-12.8-32-19.2-19.2-38.4-38.4-57.6-44.8-32-12.8-57.6-38.4-76.8-83.2-32-89.6-25.6-211.2 19.2-288 38.4-64 102.4-108.8 185.6-134.4l96-102.4c6.4-6.4 12.8-6.4 19.2-6.4 6.4 0 12.8 0 12.8 6.4 12.8 6.4 25.6 25.6 38.4 44.8 12.8-19.2 25.6-38.4 38.4-44.8 6.4-6.4 6.4-6.4 12.8-6.4s12.8 0 12.8 6.4l70.4 76.8c12.8 0 32-6.4 57.6-6.4 70.4-6.4 108.8-64 153.6-128l6.4-12.8c6.4 6.4 6.4 0 6.4 0h-6.4z"  horiz-adv-x="1024" />

    
    <glyph glyph-name="fuzhi" unicode="&#58930;" d="M960 524.8c0 6.4 0 6.4-6.4 12.8l-140.8 140.8c0 6.4-6.4 6.4-19.2 6.4H326.4c-32 0-57.6-25.6-57.6-51.2v-646.4c0-32 25.6-51.2 57.6-51.2H896c32 0 57.6 25.6 57.6 51.2l6.4 537.6z m-166.4 121.6l121.6-121.6h-96c-19.2 0-25.6 6.4-25.6 25.6V646.4z m121.6-665.6c0-6.4-6.4-12.8-19.2-12.8H320c-6.4 0-19.2 6.4-19.2 12.8V633.6c0 6.4 6.4 12.8 19.2 12.8h422.4v-102.4c0-32 25.6-51.2 57.6-51.2h102.4v-512h12.8zM108.8 160V780.8c0 6.4 6.4 12.8 19.2 12.8h467.2c6.4 0 19.2-6.4 19.2-12.8v-51.2h51.2v51.2c-12.8 25.6-44.8 51.2-76.8 51.2H121.6c-32 0-57.6-25.6-57.6-51.2v-614.4c0-32 25.6-51.2 57.6-51.2h102.4v38.4H121.6c-6.4-6.4-12.8 0-12.8 6.4z m518.4 256h-38.4v-89.6H486.4v-38.4h102.4v-89.6h44.8V288h102.4v38.4H627.2V416z"  horiz-adv-x="1024" />

    
    <glyph glyph-name="yuanchengzhuomian" unicode="&#59098;" d="M896 768H128c-35.2 0-64-28.8-64-64v-512c0-35.2 28.8-64 64-64h362.368v-64H288c-17.6 0-32-14.4-32-32s14.4-32 32-32h448c17.6 0 32 14.4 32 32s-14.4 32-32 32H554.368v64H896c35.2 0 64 28.8 64 64V704c0 35.2-28.8 64-64 64z m0-544a32 32 0 0 0-32-32h-704a32 32 0 0 0-32 32v448a32 32 0 0 0 32 32h704a32 32 0 0 0 32-32v-448zM407.36 576.064h128c17.6 0 32-14.4 32-32s-14.4-32-32-32H483.2l138.88-137.536c12.416-12.416 12.416-32.832 0-45.248s-32.832-12.416-45.248 0L439.36 465.344v-49.28c0-17.6-14.4-32-32-32a32.064 32.064 0 0 0-32 32v128c0 17.6 14.4 32 32 32z"  horiz-adv-x="1024" />

    
    <glyph glyph-name="icon191" unicode="&#58888;" d="M720.09284676 413.73043108l-175.55586287 0 0 175.55586287-60.90709277 0 0-175.55586287-175.55374263 0 0-57.32544575 175.55374263 0 0-175.55586287 60.90709277 1e-8 0 175.55586286 175.55586287 0L720.09284676 413.73043108zM508.67385491-53.78165937000006c-244.96221206 0-444.26000917 199.2977971-444.26000915 444.26000917s199.2977971 444.26000917 444.26000915 444.26000917 444.26000917-199.2977971 444.26000918-444.26000917S753.6360681-53.78165937000006 508.67385491-53.78165937000006zM508.67385491 817.31573297c-235.36662081 0-426.83738317-191.47076233-426.83738316-426.83738317s191.47076233-426.83738317 426.83738316-426.83738314c235.36662081 0 426.83738317 191.47076233 426.83738315 426.83738314S744.04047573 817.31573297 508.67385491 817.31573297zM715.76579113 418.63743705l-172.48527344 0 0 172.48315319-59.84044467 0 0-172.48315319-172.48315321 0 0-56.32241497 172.48315321 0 0-172.4831532 59.84044467 0 0 172.4831532 172.48527344 0L715.76579113 418.63743705z"  horiz-adv-x="1024" />

    
    <glyph glyph-name="zhuomian" unicode="&#59089;" d="M954.107698 828.81709H76.414915A73.354304 73.354304 0 0 1 3.261306 755.51296v-584.978a73.354304 73.354304 0 0 1 73.153609-73.153609h414.135724v-73.153608h-231.301876a36.576804 36.576804 0 1 1 0-73.153609h511.774217a36.576804 36.576804 0 1 1 0 73.153609h-207.318732v73.153608h390.453624a73.354304 73.354304 0 0 1 73.153608 73.153609V755.51296a73.354304 73.354304 0 0 1-73.203782 73.30413z m0-621.705326a36.576804 36.576804 0 0 0-36.576805-36.576804H112.991719a36.576804 36.576804 0 0 0-36.576804 36.576804v511.774218a36.576804 36.576804 0 0 0 36.576804 36.626978h804.589348a36.576804 36.576804 0 0 0 36.576805-36.576804zM482.372287 536.353178H541.878583a36.576804 36.576804 0 0 1 0 73.153608H395.671713a36.677152 36.677152 0 0 1-36.576804-36.576804v-146.307218a36.576804 36.576804 0 0 1 73.153609 0V482.917928l157.094615-155.539223A36.576804 36.576804 0 0 1 641.072468 379.208388z"  horiz-adv-x="1027" />

    
    <glyph glyph-name="shanchu1" unicode="&#58922;" d="M512 864C246.4 864 32 649.6 32 384s214.4-480 480-480 480 214.4 480 480S777.6 864 512 864m201.6-681.6c-12.8-12.8-35.2-12.8-48 0L512 336 358.4 182.4c-12.8-12.8-35.2-12.8-48 0-12.8 12.8-12.8 35.2 0 48L464 384 310.4 537.6c-12.8 12.8-12.8 35.2 0 48 12.8 12.8 35.2 12.8 48 0L512 432l153.6 153.6c12.8 12.8 35.2 12.8 48 0 12.8-12.8 12.8-35.2 0-48L560 384l153.6-153.6c16-12.8 16-35.2 0-48m0 0z"  horiz-adv-x="1024" />

    
    <glyph glyph-name="xiaozu" unicode="&#58891;" d="M679.6 289.3c-8.5 3.5-18.9 6.8-31.2 15.3-18 12.3-31.7 37.8 1.6 69 110.2 174.3 70.1 290.1 53.4 333.7 13.9 6 29.9 9.5 48.1 9.5h5.7c105.6 0 133.6-105.2 135.7-164.3 1.4-139.3-76.2-194.6-76.2-194.6s-4.8-7.3-4.8-28.6c0-4.8 2.9-19.3 7.8-23.7 43.3-38.5 187.9-78.6 198-161.4 5.3-24 2.1-48.8 1.1-71.9-23.7-19.9-99.5-36.8-99.5-36.8s-6.3 21-12.7 55.6c-9.4 51.2-72.5 134.1-227 198.2zM10 144.9c10.4 82.8 158.7 122.8 203.2 161.2 5.1 4.4 8 18.9 8 23.7 0 21.2-4.9 28.6-4.9 28.6s-79.6 55.3-78.1 194.3c2.1 58.9 35.7 164.1 139 164.1h5.9c22.3 0 41-4.7 57-12.3-22.1-81.2-48.7-230.2 63.1-330.1 43.9-71.7-102.2-113.8-79.5-102.6C191.4 206.7 155.9 156.7 146.2 105c-4.4-23.1-8.6-46.3-12.6-69.5-4.1-23.2-99.1 16.6-124.6 37.6-1.2 23.1-4.5 47.9 1 71.8z m431 158.9c6.2 5.4 9.9 23.4 9.9 29.5 0 26.4-6 35.5-6 35.5 0.1-0.1-97.7 58-95.8 241.5 2.7 73.3 43.8 203.9 170.6 203.9h7.2c132.6 0 167.9-130.6 170.6-203.9 1.8-172.8-95.8-241.5-95.8-241.5s-11.9-14.9-11.9-41.2c0-6 9.4-18.3 15.6-23.7 54.5-47.9 250.5-96 263.3-198.9 9.8-43.6 68-112.9-125.5-140.7-53.3-7.7-125.7-12.2-223.5-12.2-448.9 0-356.1 95.4-343.4 151.3C188.9 206.2 386.5 256 441 303.8z m0 0"  horiz-adv-x="1024" />

    
    <glyph glyph-name="shanghuifayan" unicode="&#58951;" d="M628 307.5v-25.1H189.3c-4.6 0-9.2-0.5-13.5-1.5v26.3M666.4 357.7l-170 84.9 50.5 73.4c2.8 4.1 4.3 8.9 4.3 13.8V651c0 80.5-64.4 143.5-146.7 143.5-82.3 0-146.7-63-146.7-143.5v-121.2c0-5.1 1.6-10 4.5-14.2l51.8-72.9-177.3-84.9c-8.5-4.1-13.9-12.6-13.9-22.1l-0.3-56.5h557.3v56.5c0 9.4-5.2 17.8-13.5 22zM840.2 294.1h-3.9c9.9 58.3-3.9 115.1-36.7 153.4 9.8 13.9 15.6 30.8 15.6 49.1 0 47-38.3 85.3-85.3 85.3s-85.3-38.3-85.3-85.3 38.3-85.3 85.3-85.3c11 0 21.5 2.1 31.1 5.9 22.2-25.4 37-69.9 25.5-123.1H679.9v40.6c0 9.3-5.2 17.7-13.5 21.9l-529.6 0.2c-8.5-4.1-13.9-12.6-13.9-22.1l-0.8-150.2c0-35 28.4-63.4 63.4-63.4h654.7c35 0 63.4 28.4 63.4 63.4v46.2c0 34.9-28.5 63.4-63.4 63.4zM729.9 460.2c-20.1 0-36.4 16.3-36.4 36.4 0 20.1 16.3 36.4 36.4 36.4 20.1 0 36.4-16.3 36.4-36.4 0-20.1-16.3-36.4-36.4-36.4z m124.8-275.7c0-8-6.5-14.5-14.5-14.5H185.5c-8 0-14.5 6.5-14.5 14.5v44.2h0.8v6.7c1.9 5.7 7.3 9.8 13.7 9.8h654.7c8 0 14.5-6.5 14.5-14.5v-46.2z"  horiz-adv-x="1024" />

    
    <glyph glyph-name="yunpingtai" unicode="&#58924;" d="M490.934 328.078l245.956 135.466 179.624-98.932c-28.84 91.992-114.86 158.76-216.336 158.76-13.856 0-27.44-1.308-40.664-3.61-22.838 100.736-113.104 171.28-220.7 171.28-111.658 0-204.588-76.41-223.046-182.878-84.714-32.812-144.652-115.088-144.652-211.268 0-125.064 101.414-200.978 226.478-200.978h193.342v232.16zM948.682 189.67l-188.436-86.234c-19.164-6.388-25.55-6.388-41.52 0l-188.436 86.234c-9.582 6.388-12.776 25.55-12.776 35.132 12.776-6.388 28.744-15.97 28.744-15.97l191.63-89.428 191.63 89.428s15.97 9.582 28.744 15.97c3.194-9.582 0-31.938-9.58-35.132z m0 89.426l-188.436-86.234c-19.164-6.388-25.55-6.388-41.52 0l-188.436 86.234c-15.97 6.388-12.776 31.938 0 41.52l188.436 99.008c15.97 9.582 25.55 9.582 41.52 0l188.436-99.008c12.774-6.386 12.774-35.132 0-41.52zM737.888 33.172l191.63 89.428s15.97 9.582 28.744 15.97c0-9.582-3.194-31.938-12.776-35.132l-188.436-86.234c-19.164-6.388-25.55-6.388-41.52 0l-188.436 86.234c-9.582 6.388-12.776 25.55-12.776 35.132 12.776-6.388 28.744-15.97 28.744-15.97l194.826-89.428z"  horiz-adv-x="1024" />

    
    <glyph glyph-name="tubiao-" unicode="&#58905;" d="M992.256-128H31.744c-17.92 0-31.744 14.336-31.744 32.256s14.336 32.256 31.744 32.256h960c17.92 0 32.256-14.336 32.256-32.256s-14.336-32.256-31.744-32.256zM921.6 896H102.4C46.08 896 0 849.92 0 793.6v-691.2c0-56.32 46.08-102.4 102.4-102.4h819.2c56.32 0 102.4 46.08 102.4 102.4V793.6c0 56.32-46.08 102.4-102.4 102.4z m26.624-763.392c15.36-15.872 15.872-40.96 0-56.832-15.872-15.36-40.96-15.36-56.832 0l-170.496 170.496v-141.824c0-22.528-18.432-40.448-40.448-40.448-22.528 0-40.448 18.432-40.448 40.448v239.104c0 10.24 3.584 20.992 11.776 28.672 7.68 7.68 18.432 11.776 28.672 11.776h239.104c22.528 0 40.448-18.432 40.448-40.448 0-22.528-18.432-40.448-40.448-40.448h-141.824l170.496-170.496z"  horiz-adv-x="1024" />

    
    <glyph glyph-name="jiahao" unicode="&#58892;" d="M512 896C230.4 896 0 665.6 0 384s230.4-512 512-512 512 230.4 512 512S793.6 896 512 896z m204.8-563.2h-153.6v-153.6c0-30.72-20.48-51.2-51.2-51.2s-51.2 20.48-51.2 51.2v153.6H307.2c-30.72 0-51.2 20.48-51.2 51.2s20.48 51.2 51.2 51.2h153.6V588.8c0 30.72 20.48 51.2 51.2 51.2s51.2-20.48 51.2-51.2v-153.6h153.6c30.72 0 51.2-20.48 51.2-51.2s-20.48-51.2-51.2-51.2z"  horiz-adv-x="1024" />

    
    <glyph glyph-name="withdraw" unicode="&#58946;" d="M368.19 26.235000000000014c-14.367 0-26.051 11.684-26.051 26.05s11.684 26.051 26.05 26.051h225.977c176.737 0 223.437 145.475 223.437 222.397 0 83.313-28.934 223.084-222.74 223.084H242.533L377.76 388.582a25.861 25.861 0 0 0 7.623-18.406 25.907 25.907 0 0 0-7.623-18.432 25.892 25.892 0 0 0-18.422-7.634 26.127 26.127 0 0 0-18.412 7.619l-178.99 179a26.092 26.092 0 0 0 0 36.838l166.57 166.574a25.882 25.882 0 0 0 18.421 7.63c6.958 0 13.502-2.71 18.422-7.63a26.086 26.086 0 0 0 0-36.838L243.963 575.918h350.894c100.854 0 175.939-32.824 223.186-97.556 42.675-58.496 51.645-128.886 51.656-177.634 0-110.34-73.38-274.493-275.533-274.493H368.189z"  horiz-adv-x="1024" />

    
    <glyph glyph-name="xiangpi" unicode="&#58972;" d="M777.9328 311.9104l214.8352 207.872c40.96 39.6288 40.96 99.0208 0 138.6496L777.9328 866.304l-15.36 14.848c-10.24 4.9664-25.5488 9.8816-35.7888 14.848h-40.9088c-10.24 0-25.6-4.9664-35.7888-14.848l-15.36-14.848L31.232 277.248c-40.96-39.5776-40.96-98.9696 0-138.5472l214.8352-207.872c15.36-19.8656 40.9088-29.696 61.3376-29.696h613.7344v49.4592H409.7024l368.2304 361.3184z m-465.408-361.3184c-10.24 0-25.6 4.9152-35.84 14.848l-214.784 207.872c-5.12 9.9328-10.24 19.8144-10.24 34.6624 0 14.848 5.12 24.7296 15.36 34.6624l332.4416 321.7408c0-19.8144 10.24-34.6624 25.6-49.5104l214.784-207.872c15.36-14.848 30.72-19.8144 46.08-24.7808l-332.4928-321.7408c-10.24-4.9664-25.6-9.8816-40.9088-9.8816z"  horiz-adv-x="1024" />

    
    <glyph glyph-name="momentwritepicture" unicode="&#58907;" d="M0 759.49142C0 834.883028 60.936397 896 136.19811 896L1092.60189 896C1167.822029 896 1228.8 835.010741 1228.8 759.49142L1228.8 8.50858C1228.8-66.883028 1167.863603-128 1092.60189-128L136.19811-128C60.977971-128 0-67.010741 0 8.50858L0 759.49142 0 759.49142 0 759.49142 0 759.49142 0 759.49142ZM68.266667 156.312163 68.266667 759.49142C68.266667 797.232753 98.691447 827.733333 136.19811 827.733333L1092.60189 827.733333C1130.138487 827.733333 1160.533333 797.288892 1160.533333 759.49142L1160.533333 393.235453C1153.593924 399.374162 1146.282564 404.869263 1138.67578 409.58206L1002.309939 494.067883C943.582583 530.452548 861.168981 521.017904 812.169114 472.189133L539.941581 200.912265C535.393212 196.379785 522.234061 194.780931 516.781602 198.053383L392.566989 272.604617C336.355123 306.341905 255.42854 301.550848 203.355341 261.43703L80.737417 166.980116C76.469726 163.692578 72.307337 160.125423 68.266667 156.312163L68.266667 156.312163 68.266667 156.312163 68.266667 156.312163 68.266667 156.312163ZM68.266667 42.666667 68.266667 8.50858C68.266667-29.288892 98.661513-59.733333 136.19811-59.733333L1092.60189-59.733333C1130.108553-59.733333 1160.533333-29.232753 1160.533333 8.50858L1160.533333 145.20291 1160.533333 247.739153C1160.533333 285.007319 1134.650368 331.769184 1102.72215 351.550409L966.356275 436.036233C934.563123 455.73375 886.970266 450.353862 860.356437 423.832948L588.128905 152.556083C561.35127 125.871951 513.843234 120.198659 481.650927 139.51987L357.436279 214.071105C325.37443 233.314017 274.911607 230.38591 245.015791 207.356109L122.397833 112.899195C102.422016 97.51113 84.946944 70.316623 75.566933 42.666667L68.266667 42.666667 68.266667 42.666667 68.266667 42.666667 68.266667 42.666667 68.266667 42.666667ZM341.333333 418.133333C416.738611 418.133333 477.866667 479.261389 477.866667 554.666667 477.866667 630.071945 416.738611 691.2 341.333333 691.2 265.928055 691.2 204.8 630.071945 204.8 554.666667 204.8 479.261389 265.928055 418.133333 341.333333 418.133333L341.333333 418.133333 341.333333 418.133333 341.333333 418.133333 341.333333 418.133333ZM341.333333 486.4C303.630711 486.4 273.066667 516.964028 273.066667 554.666667 273.066667 592.369306 303.630711 622.933333 341.333333 622.933333 379.035955 622.933333 409.6 592.369306 409.6 554.666667 409.6 516.964028 379.035955 486.4 341.333333 486.4L341.333333 486.4 341.333333 486.4 341.333333 486.4 341.333333 486.4Z"  horiz-adv-x="1229" />

    
    <glyph glyph-name="huabi" unicode="&#58955;" d="M531.602286 857.965714l337.822476-195.047619-301.29981-521.849905-222.012952-189.488761-168.911238 97.523809 53.150476 287.012572L531.553524 857.965714zM219.428571 24.722286l84.455619-48.761905-46.031238-77.921524H146.285714L219.428571 24.722286z"  horiz-adv-x="1024" />

    
    <glyph glyph-name="xiangji" unicode="&#59061;" d="M1107.456 694.4a145.536 145.536 0 0 1-108.48 45.44h-133.568l-30.656 82.368a121.024 121.024 0 0 1-41.728 51.072C773.568 887.488 751.36 896 731.84 896H425.728C403.456 896 384 887.488 364.544 873.28a121.024 121.024 0 0 1-41.792-51.072L289.408 739.84h-136.32c-41.792 0-77.952-14.208-108.544-45.44C13.888 663.168 0 626.24 0 583.68v-547.968c0-42.624 13.888-79.552 44.544-110.72 30.592-31.296 66.752-45.44 108.48-45.44H999.04c41.728 0 77.888 14.144 108.48 45.44 30.656 31.168 44.544 68.096 44.544 110.72V583.68c0 42.56-13.888 79.488-44.544 110.72zM576 61.248c-139.136 0-253.248 116.416-253.248 258.368S436.864 577.984 576 577.984s253.248-116.416 253.248-258.368S715.136 61.248 576 61.248z m0 428.16A168.32 168.32 0 0 1 406.592 320 168.32 168.32 0 0 1 576 150.592 168.32 168.32 0 0 1 745.408 320 168.32 168.32 0 0 1 576 489.408z"  horiz-adv-x="1152" />

    
    <glyph glyph-name="ok-" unicode="&#58904;" d="M511.33 805.78c-233.06 0-422-188.94-422-422s188.94-422 422-422 422 188.93 422 422-188.93 422-422 422zM724.51 488l-240-240a44.13 44.13 0 0 0-62.22 0L302.15 368.27a44.13 44.13 0 0 0 0 62.22 44.12 44.12 0 0 0 62.23 0l89.06-89.06 208.85 208.85a44.13 44.13 0 0 0 62.22 0 44.14 44.14 0 0 0 0-62.28z"  horiz-adv-x="1024" />

    
    <glyph glyph-name="ok" unicode="&#59574;" d="M512 384m-448 0a448 448 0 1 1 896 0 448 448 0 1 1-896 0ZM738.133333 584.533333L448 294.4l-119.466667 119.466667-59.733333-59.733334 179.2-179.2 349.866667 349.866667z"  horiz-adv-x="1024" />

    
    <glyph glyph-name="jihuaweikaiqi" unicode="&#58950;" d="M1024 400V-64a64 64 0 0 0-64-64H64a64 64 0 0 0-64 64V832a64 64 0 0 0 64 64h464a48 48 0 1 0 0-96H96v-832h832V400a48 48 0 1 0 96 0zM1010.08 882.08c18.56-18.592 18.56-48.704 0-67.296L401.216 205.92a47.584 47.584 0 1 0-67.296 67.296L942.784 882.08c18.56 18.56 48.704 18.56 67.296 0z"  horiz-adv-x="1024" />

    
    <glyph glyph-name="qiandao" unicode="&#58886;" d="M739.328-18.432c-4.096 0-8.192 0.512-11.776 2.048-2.048 0.512-3.584 1.536-4.608 2.56-1.024 0.512-2.048 1.024-3.072 2.048l-1.024 0.512-2.048 2.048-2.56 2.56-68.096 67.072c-6.144 6.144-9.728 14.336-9.728 23.04 0 8.704 3.072 16.896 9.216 23.04 12.8 12.8 33.28 12.8 46.08 0.512l46.592-46.08 100.352 107.008c5.632 6.144 13.824 10.24 22.528 10.24 8.704 0 16.896-3.072 23.552-8.704 6.144-6.144 10.24-14.336 10.24-22.528 0-8.704-3.072-16.896-8.704-23.04l-120.832-128.512v-0.512l-2.56-2.56c-0.512-0.512-1.024-1.024-1.536-1.024l-1.024-1.024-0.512-0.512c-1.024-1.024-2.56-1.536-3.072-2.048-1.024-0.512-2.56-1.536-4.608-2.56-4.096-2.56-8.704-3.584-12.8-3.584zM798.72 527.872c0 160.256-128 288.256-287.744 288.256s-288.256-128-288.256-288.256c0-105.472 57.856-201.728 147.456-249.856-121.856-48.128-214.528-153.6-240.128-288.256-3.072-15.872 6.144-35.328 25.6-38.4h6.144c15.872 0 28.672 9.728 32.256 25.6 28.672 150.528 160.256 259.072 313.856 262.144h6.144c156.672 1.024 284.672 132.096 284.672 288.768z m-285.184-223.744h-9.728C382.464 310.272 286.72 409.6 286.72 527.872c0 124.928 99.328 224.256 223.744 224.256s224.256-99.328 224.256-224.256c0-121.344-99.328-220.672-221.184-223.744z"  horiz-adv-x="1024" />

    
    <glyph glyph-name="tongji" unicode="&#58925;" d="M295.39 65.884c0-11.282-9.134-20.4-20.408-20.4H138.064c-11.272 0-20.371 9.118-20.371 20.4V360.84c0 11.262 9.099 20.404 20.37 20.404h136.919c11.274 0 20.408-9.142 20.408-20.404v-294.957z m206.126 0c0-11.282-9.133-20.4-20.424-20.4H344.21c-11.272 0-20.39 9.118-20.39 20.4V481.667c0 11.257 9.118 20.406 20.39 20.406h136.882c11.29 0 20.424-9.152 20.424-20.406v-415.783z m206.11 0c0-11.282-9.113-20.4-20.404-20.4H550.318c-11.272 0-20.371 9.118-20.371 20.4v497.54c0 11.256 9.099 20.398 20.37 20.398h136.905c11.29 0 20.404-9.143 20.404-20.398v-497.54z m206.126 0c0-11.282-9.118-20.4-20.404-20.4H756.444c-11.253 0-20.39 9.118-20.39 20.4V780.206c0 11.262 9.137 20.397 20.39 20.397h136.904c11.285 0 20.404-9.135 20.404-20.397v-714.322z m7.74-72.49c0-11.252-9.131-20.407-20.408-20.407H116.28c-11.272 0-20.393 9.154-20.393 20.408v5.226c0 11.253 9.12 20.39 20.393 20.39h784.804c11.277 0 20.409-9.137 20.409-20.39v-5.226z"  horiz-adv-x="1024" />

    
    <glyph glyph-name="qiandao2" unicode="&#58976;" d="M512 606.5c-86.6 0-156.8-70.8-156.8-158.1S425.4 290.3 512 290.3s156.7 70.8 156.7 158.1S598.6 606.5 512 606.5z m0.2-255h-0.1-0.1c-39.5 0-101.1 6.7-101.1 21.1 0 14.4 1 46.8 37.2 54.8 20.2 4.5 30.1 6.6 39.2 7.6v20.9c-10.3 11.2-14.5 26.3-14.5 26.3-8.2 0-12.2 17.6-13.7 26.5v0.1 0.2c0 0.2-0.1 0.4-0.1 0.6 0 2.3 1.8 4.2 4.1 4.2h3.5v27.8c0 22.2 35.1 29.2 45.4 29.2 10.3 0 45.4-7 45.4-29.2v-27.8h3.5c2.2-0.1 4.1-1.9 4.1-4.2 0-0.2 0-0.5-0.1-0.7h0.1c-1.5-8.9-5.5-26.7-13.8-26.7 0 0-3.6-13.1-12.4-24v-23.5c8.6-1.1 18.4-3.2 37.2-7.4 36-8.1 37-40.4 37-54.8 0.1-14.4-61.3-21-100.8-21zM512 832C264.6 832 64 631.4 64 384s200.6-448 448-448 448 200.6 448 448S759.4 832 512 832z m187.1-495.8l-2.7-4c-3.3-5.4-6.8-10.6-10.6-15.6L537.4 98.1l-0.1 0.1c-5.4-8.3-14.7-13.8-25.3-13.8-10.6 0-19.9 5.5-25.3 13.8v-0.1L338.2 316.6c-3.8 5-7.3 10.2-10.6 15.6l-2.7 4h0.3c-19.4 32.8-30.6 71.2-30.6 112.2 0 121.1 97.3 219.3 217.4 219.3 120.1 0 217.4-98.2 217.4-219.3 0-41-11.2-79.4-30.6-112.2h0.3z"  horiz-adv-x="1024" />

    
    <glyph glyph-name="dapingmu" unicode="&#59335;" d="M1047.630769 37.415385h-189.046154c-15.753846 0-31.507692 15.753846-31.507692 31.507692s15.753846 31.507692 31.507692 31.507692h173.292308V825.107692H70.892308V108.307692h173.292307c15.753846 0 31.507692-15.753846 31.507693-31.507692 0-7.876923 0-15.753846-7.876923-23.630769-7.876923-7.876923-15.753846-7.876923-23.63077-7.876923H55.138462c-31.507692 0-55.138462 23.630769-55.138462 55.138461V848.738462C0 872.369231 23.630769 896 55.138462 896h992.492307c15.753846 0 23.630769-7.876923 39.384616-15.753846 7.876923-7.876923 15.753846-23.630769 15.753846-39.384616v-756.184615c0-23.630769-23.630769-47.261538-55.138462-47.261538M409.6 368.246154c-7.876923 0-15.753846 0-23.630769 7.876923-15.753846 15.753846-15.753846 39.384615 0 47.261538 94.523077 94.523077 236.307692 94.523077 330.830769 0 15.753846-15.753846 15.753846-39.384615 0-47.261538-7.876923 0-15.753846-7.876923-23.630769-7.876923s-15.753846 0-23.630769 7.876923c-63.015385 63.015385-165.415385 63.015385-228.43077 0-15.753846 0-23.630769-7.876923-31.507692-7.876923z m-31.507692-401.723077h346.584615V179.2H378.092308v-212.676923z m346.584615-70.892308H378.092308c-15.753846 0-39.384615 7.876923-47.261539 23.630769-15.753846 15.753846-23.630769 31.507692-23.630769 47.261539V179.2c0 15.753846 7.876923 39.384615 23.630769 47.261538 15.753846 15.753846 31.507692 23.630769 47.261539 23.63077h346.584615c15.753846 0 39.384615-7.876923 47.261539-23.63077 15.753846-15.753846 23.630769-31.507692 23.630769-47.261538v-212.676923c0-15.753846-7.876923-39.384615-23.630769-47.261539-7.876923-15.753846-31.507692-23.630769-47.261539-23.630769zM850.707692 478.523077c-7.876923 0-15.753846 0-23.630769 7.876923-149.661538 149.661538-393.846154 149.661538-543.507692 0-15.753846-15.753846-39.384615-15.753846-47.261539 0-23.630769 15.753846-23.630769 39.384615-7.876923 55.138462 181.169231 173.292308 464.738462 173.292308 645.907693 0 7.876923-7.876923 7.876923-15.753846 7.876923-23.63077 0-7.876923 0-15.753846-7.876923-23.630769-7.876923-7.876923-15.753846-15.753846-23.63077-15.753846"  horiz-adv-x="1102" />

    
    <glyph glyph-name="zuoye-copy" unicode="&#58881;" d="M965.12 211.96799999999996c-11.264 18.944-25.6 37.888-43.008 54.784-16.896 16.384-35.328 31.232-55.808 43.52l34.304 34.304s49.152 0 73.728-24.576c24.576-24.576 24.576-73.728 24.576-73.728l-33.792-34.304M661.504-95.74400000000003H558.592V7.168000000000006l12.288 12.288c22.528-10.752 43.008-25.088 60.416-42.496 17.408-17.408 32.256-37.888 42.496-60.416l-12.288-12.288m274.944 279.552l-232.96-237.056a273.817 273.817 0 0 1-45.056 57.344c-17.408 17.408-37.376 32.768-58.368 45.056l237.568 233.472c21.504-10.24 40.96-24.064 57.856-40.448s31.232-37.376 40.96-58.368m-482.304-179.2c-0.512 12.8 76.288 94.208 166.4 185.344h-401.92c-21.504 0-38.912 17.408-38.912 38.912 0 21.504 17.408 38.912 38.912 38.912h454.144c7.168 0 13.824-2.048 19.456-5.12 78.848 78.848 155.648 153.6 190.976 187.904V805.376c0 47.104-38.4 85.504-85.504 85.504H111.104C64 890.88 25.6 852.48 25.6 805.376v-842.24c0-47.104 38.4-85.504 85.504-85.504h343.552c0 47.104 0 109.056-0.512 126.976M178.176 637.952c0 21.504 17.408 38.912 38.912 38.912H673.28c21.504 0 38.912-17.408 38.912-38.912s-17.408-38.912-38.912-38.912H217.088c-21.504 0-38.912 17.408-38.912 38.912m1.536-206.336c0 21.504 17.408 38.912 38.912 38.912h454.144c21.504 0 38.912-17.408 38.912-38.912 0-21.504-17.408-38.912-38.912-38.912H219.136c-21.504 0-39.424 17.92-39.424 38.912"  horiz-adv-x="1024" />

    
    <glyph glyph-name="bianji" unicode="&#58945;" d="M959.716928 341.049792M939.445232 771.458519 897.003608 813.900144c-23.438828 23.438828-61.439304 23.438828-84.878133 0l-41.11542-41.114396 127.32385-127.32385 41.111327 41.11235C962.889177 710.014098 962.889177 748.019691 939.445232 771.458519zM889.98475 5.246747 131.8704 5.246747 131.8704 763.360074l483.21542 0L615.08582 829.939445 134.01525 829.939445c-37.957497 0-68.725244-30.767747-68.725244-68.725244l0-755.968477c0-37.957497 30.767747-68.725244 68.725244-68.725244l755.968477 0c37.957497 0 68.725244 30.767747 68.725244 68.725244L958.708971 486.31834l-68.725244 0L889.983727 5.246747zM854.561983 601.690998 727.238133 729.013825 382.800429 384.580215l0.214894-0.214894L362.102015 262.938784c-2.697435-15.658631 10.937097-29.262464 26.589588-26.529213l121.128755 21.147646 0.305969-0.305969L854.561983 601.690998z"  horiz-adv-x="1024" />

    
    <glyph glyph-name="shanchu" unicode="&#58949;" d="M912 681.4H109.6c-21.1 0-38.2-17.1-38.2-38.2S88.5 605 109.6 605h88.6v-469.1c0-90.7 73.8-164.5 164.5-164.5h296.2c90.7 0 164.5 73.8 164.5 164.5V605.1H912c21.1 0 38.2 17.1 38.2 38.2 0 21-17.1 38.1-38.2 38.1zM462.5 213c0-21.1-17.1-38.2-38.2-38.2s-38.2 17.1-38.2 38.2V452.9c0 21.1 17.1 38.2 38.2 38.2s38.2-17.1 38.2-38.2V213z m172.9 0c0-21.1-17.1-38.2-38.2-38.2S559 191.9 559 213V452.9c0 21.1 17.1 38.2 38.2 38.2s38.2-17.1 38.2-38.2V213zM364.5 721.4h292.6c21.1 0 38.2 17.1 38.2 38.2s-17.1 38.2-38.2 38.2H364.5c-21.1 0-38.2-17.1-38.2-38.2s17.1-38.2 38.2-38.2z"  horiz-adv-x="1024" />

    
    <glyph glyph-name="xinxi" unicode="&#58897;" d="M512 831.3C264.9 831.3 64.7 631.1 64.7 384S264.9-63.3 512-63.3c247.1 0 447.3 200.3 447.3 447.3S759.1 831.3 512 831.3z m64-699.6c0-35.1-28.8-63.9-63.9-63.9s-63.9 28.8-63.9 63.9V387.3c0 35.1 28.8 63.9 63.9 63.9s63.9-28.8 63.9-63.9v-255.6z m-63.9 440.8c-35.3 0-63.9 28.6-63.9 63.9s28.6 63.9 63.9 63.9 63.9-28.6 63.9-63.9-28.6-63.9-63.9-63.9z"  horiz-adv-x="1024" />

    
    <glyph glyph-name="jiantou1" unicode="&#58898;" d="M511.31 226.6a61.19 61.19 0 0 0-43.25 17.79l-237.12 237.2a35 35 0 0 0 49.55 49.55l230.89-230.9 230.9 230.89a35 35 0 1 0 49.55-49.55L554.7 244.46a61.41 61.41 0 0 0-43.39-17.86z"  horiz-adv-x="1024" />

    
    <glyph glyph-name="jiantou2" unicode="&#58884;" d="M670.676929 118.407016 403.62778 382.637979l265.320785 268.146133c11.776208 11.775184 11.734252 30.908964-0.091074 42.73429l-0.001023 0c-11.825326 11.82635-30.958082 11.867282-42.72815-2.930749L343.100242 407.559579c-3.817955-4.273327-8.205892-9.321296-8.933463-12.045337-4.470825-11.112082-2.232854-24.765033 6.710842-35.987632l286.98213-286.98213c11.875468-8.847505 31.096229-8.893554 42.922578 2.932796C682.606633 87.303624 682.560584 106.523361 670.676929 118.407016z"  horiz-adv-x="1024" />

    
    <glyph glyph-name="jiantou" unicode="&#58902;" d="M671.589 384.289l-270.231 270.189c-2.575 2.818-5.689 5.096-9.184 6.68-2.56 5.106-20.288 5.106-31.223-5.829-10.935-10.935-10.935-28.663 0-39.598 0.278-0.278 0.564-0.545 0.851-0.809l-0.021-0.021 230.691-230.691-231.94-231.94c-10.935-10.935-10.935-28.663 0-39.598s28.663-10.935 39.598 0l271.459 271.617z"  horiz-adv-x="1024" />

    
    <glyph glyph-name="list-xiazai" unicode="&#58970;" d="M543 30.9c0-16.3-13.4-29.5-30-29.5s-30 13.2-30 29.5V486.1c0 16.3 13.4 29.5 30 29.5s30-13.2 30-29.5v-455.2z m0 455.2M282.5 185.6c-12.5 10.5-14 29.2-3.3 41.9 10.6 12.7 29.4 14.5 41.9 4l210.8-177.3c12.5-10.5 14-29.2 3.3-41.9s-29.4-14.5-41.9-4L282.5 185.6z m210.8-177.4M531.9 8.2c-12.5-10.5-31.2-8.7-41.9 4-10.6 12.7-9.2 31.5 3.3 41.9l210.8 177.3c12.5 10.5 31.2 8.7 41.9-4s9.2-31.5-3.3-41.9L531.9 8.2z m0 0M962 383.7c-5.1 53-31.6 100.8-69.4 139.3-37.9 38.6-86.1 63.7-139.5 72.8-13.4 2.9-19.5 7.6-24.9 19.3-20 47.4-50 83.7-91.7 111.2-37.6 24.5-83.4 39.3-132.3 42.5-49.9 3.4-99.6-5.5-143.7-25.6-42.1-19.2-77.3-47.4-104.6-84.1-30.1-40.4-49.4-89.7-57.3-146.5-2.8-15.1-6.2-21.2-20.3-27.8-41-18.5-75-52.9-95.8-96.9-20.7-43.9-26.4-93.1-15.9-138.6 14-59 40.2-99.6 79.2-122.3 20.5-11.9 46.1 3 46.1 26.6v1.3c0 11.1-6.1 21.2-15.7 26.8-28.7 16.7-46.3 49.7-51 97.1-9 83.6 37.4 142.5 127.2 161.7l2.4 0.5 0.3 2.5c1.2 9.6 2.1 19.2 3 28.4 2.3 23.5 4.4 45.7 10.1 66.5v0.1c22.7 96.7 102.7 161.9 203.9 165.9 109.7 5.3 177.9-40.4 209-139.5 6.9-22 18.7-26.8 36.6-27.8 61.6-4.4 114-31 147.8-75.1 33.4-43.5 45.4-100.1 33.8-159.4-7.8-41-17-72.4-36.2-92.5-5.1-5.3-10.8-9.9-17.6-13.8-8.1-4.8-13.3-13.4-13.3-22.9v-0.2c0-21.8 30.9-35.1 48.3-22 29.8 22.4 50.7 59.8 60.2 87.1 10.8 31.3 26.3 93.4 21.3 145.4z"  horiz-adv-x="1024" />

    
    <glyph glyph-name="PDF" unicode="&#59075;" d="M910.2336-128H113.7664C51.2-128 0-76.8 0-14.2336V782.2336C0 844.8 51.2 896 113.7664 896h796.4672C972.8 896 1024 844.8 1024 782.2336v-796.4672C1024-76.8 972.8-128 910.2336-128zM155.2128 340.5568h44.672c35.9936-1.2032 66.0224 8.704 89.984 29.6704 24.0128 20.9664 36.0192 48.3328 36.0192 82.1248 0 33.28-10.24 58.9568-30.7712 76.8768-20.5312 17.92-49.3568 26.88-86.5536 26.88h-97.792v-344.2432h44.4416v128.6912z m0 176.4352h45.3376c52.48 0 78.6688-22.1184 78.6688-66.432 0-22.8096-7.04-40.3456-21.12-52.5824-14.08-12.1856-34.6624-18.304-61.7728-18.304H155.2128v137.3184z m234.0352-305.1008h94.6432c54.528 0 99.072 16.0768 133.6576 48.2048 34.6112 32.1536 51.8912 74.9056 51.8912 128.256 0 51.0976-17.28 91.8528-51.8912 122.2144-34.56 30.336-77.952 45.568-130.0992 45.568h-98.2016v-344.2432z m44.416 304.6656h51.9936c41.0624 0 74.1632-10.8032 99.328-32.4608 25.216-21.6064 37.7856-53.888 37.7856-96.8704 0-43.008-12.2368-76.3392-36.7872-100.224-24.5248-23.8592-58.624-35.7632-102.3232-35.7632H433.664V516.5568z m479.5648 0v39.5776h-177.3312v-344.2432h44.4416v150.4512h123.1104V401.408h-123.136v115.1232h132.9152z"  horiz-adv-x="1024" />

    
    <glyph glyph-name="TXTtubiao" unicode="&#58948;" d="M192 512h640a42.666667 42.666667 0 0 0 42.666667-42.666667v-362.666666a42.666667 42.666667 0 0 0-42.666667-42.666667H192v-106.666667a21.333333 21.333333 0 0 1 21.333333-21.333333h725.333334a21.333333 21.333333 0 0 1 21.333333 21.333333V587.178667L949.909333 597.333333h-126.528A98.048 98.048 0 0 0 725.333333 695.381333V823.338667L716.714667 832H213.333333a21.333333 21.333333 0 0 1-21.333333-21.333333v-298.666667zM128 64H42.666667a42.666667 42.666667 0 0 0-42.666667 42.666667V469.333333a42.666667 42.666667 0 0 0 42.666667 42.666667h85.333333V810.666667a85.333333 85.333333 0 0 0 85.333333 85.333333h530.026667L1024 613.546667V-42.666667a85.333333 85.333333 0 0 0-85.333333-85.333333H213.333333a85.333333 85.333333 0 0 0-85.333333 85.333333v106.666667zM98.624 423.509333v-38.4h85.994667V149.333333h43.008V385.109333h86.016v38.4H98.602667z m228.245333 0l87.850667-132.48L320.981333 149.333333h52.565334l67.626666 105.984L508.8 149.333333h52.565333l-94.464 141.696 88.576 132.48h-52.544l-61.76-96.768-61.738666 96.768h-52.565334z m241.856 0v-38.4h85.994667V149.333333h43.008V385.109333h86.016v38.4h-215.04z"  horiz-adv-x="1024" />

    
    <glyph glyph-name="yasuobao" unicode="&#58906;" d="M97.9 520h828.4v-269.2H97.9zM926.3 520V734.5c0 26.6-23.8 50.3-52.1 50.3H149.9c-28.3 0-52.1-23.7-52.1-50.3V520h828.5z m0 0M97.9 250.8v-214.5c0-26.6 23.6-50.3 51.7-50.3h725c28.1 0 51.7 23.7 51.7 50.3V250.8H97.9z m0 0M421.8 784.8h184.9V-14H421.8zM606.7 438.6v-112.4H413V438.6h193.7m31.1 45.9H381.9c-4.4 0-11.8-4.4-11.8-11.8v-179c0-4.4 4.4-11.8 11.8-11.8h255.9c4.4 0 11.8 4.4 11.8 11.8v179c-2.9 8.8-7.4 11.8-11.8 11.8z m0 0"  horiz-adv-x="1024" />

    
    <glyph glyph-name="excel" unicode="&#58981;" d="M145.6 896C100.8 896 64 859.2 64 814.4v-860.8C64-91.2 100.8-128 145.6-128h732.8c44.8 0 81.6 36.8 81.6 81.6V571.2L657.6 896h-512zM374.4 33.6c-3.2 0-6.4 1.6-8 3.2l-59.2 80-60.8-80c-1.6-1.6-4.8-3.2-8-3.2-6.4 0-11.2 4.8-11.2 11.2 0 1.6 0 4.8 1.6 6.4l62.4 81.6-57.6 78.4c-1.6 1.6-3.2 3.2-3.2 6.4 0 4.8 4.8 11.2 11.2 11.2 4.8 0 8-1.6 9.6-4.8l56-73.6 54.4 73.6c1.6 3.2 4.8 4.8 8 4.8 6.4 0 12.8-4.8 12.8-11.2 0-3.2-1.6-4.8-1.6-6.4l-59.2-76.8 62.4-83.2c1.6-1.6 3.2-4.8 3.2-6.4 0-6.4-6.4-11.2-12.8-11.2z m160 1.6H448c-9.6 0-17.6 8-17.6 17.6V217.6c0 6.4 4.8 11.2 12.8 11.2 6.4 0 11.2-4.8 11.2-11.2v-161.6h80c6.4 0 11.2-4.8 11.2-9.6 0-6.4-4.8-11.2-11.2-11.2z m112-3.2c-28.8 0-51.2 9.6-67.2 24-3.2 1.6-3.2 4.8-3.2 8 0 6.4 3.2 12.8 11.2 12.8 1.6 0 4.8-1.6 6.4-3.2 12.8-11.2 32-20.8 54.4-20.8 33.6 0 44.8 19.2 44.8 33.6 0 49.6-113.6 22.4-113.6 89.6 0 32 27.2 54.4 65.6 54.4 24 0 46.4-8 60.8-20.8 3.2-1.6 4.8-4.8 4.8-8 0-6.4-4.8-12.8-11.2-12.8-1.6 0-4.8 1.6-6.4 3.2-14.4 11.2-32 16-49.6 16-24 0-40-11.2-40-30.4 0-43.2 113.6-17.6 113.6-89.6 0-27.2-19.2-56-70.4-56zM960 569.6v-16H755.2s-102.4 20.8-99.2 108.8c0 0 3.2-92.8 96-92.8h208zM656 896v-233.6c0-25.6 19.2-92.8 99.2-92.8H960L656 896z"  horiz-adv-x="1024" />

    
    <glyph glyph-name="wenjian" unicode="&#58909;" d="M813.5 801.3h-592c-13.2 0-24-10.8-24-24v-792c0-13.2 10.8-24 24-24h376.1v-0.6L836.7 213h0.8V777.3c0 13.2-10.8 24-24 24zM637.2 60.6l-0.5 113.2h107.7L637.2 60.6z m160.3 153.2H600.6c-2.2 0-4-1.8-4-4l0.8-208.5H237.5v760h560v-547.5zM309 632.2h382c2.2 0 4 1.8 4 4v32c0 2.2-1.8 4-4 4H309c-2.2 0-4-1.8-4-4v-32c0-2.2 1.8-4 4-4zM309 516.1h272c2.2 0 4 1.8 4 4v32c0 2.2-1.8 4-4 4H309c-2.2 0-4-1.8-4-4v-32c0-2.2 1.8-4 4-4zM309 283.8h172c2.2 0 4 1.8 4 4v32c0 2.2-1.8 4-4 4H309c-2.2 0-4-1.8-4-4v-32c0-2.2 1.8-4 4-4zM309 399.9h272c2.2 0 4 1.8 4 4v32c0 2.2-1.8 4-4 4H309c-2.2 0-4-1.8-4-4v-32c0-2.2 1.8-4 4-4z"  horiz-adv-x="1024" />

    
    <glyph glyph-name="shouye" unicode="&#58935;" d="M939.175 411.657L557.721 788.245c-1.928 2.29-5.95 6.025-11.568 9.73-10.062 6.628-20.758 10.002-31.784 10.002-11.855 0-22.82-3.404-32.597-10.093-6.478-4.458-9.943-8.465-11.434-10.454L89.607 411.626C83.084 405.21 79.5 396.653 79.5 387.555c0-9.069 3.584-17.624 10.107-24.042 11.99-11.9 29.495-8.495 46.17 7.924l25.592 25.306L515.437 739.71l2.154-2.109L893.02 368.454c11.508-7.532 21.842-11.539 30.217-11.539 6.236 0 11.449 2.17 15.937 6.598 6.507 6.418 10.093 14.944 10.123 24.042 0 9.098-3.584 17.655-10.122 24.102zM796.885 431.12c-15.726 0-28.59-12.685-28.68-28.26v-351.312c0-19.19-15.817-34.796-35.28-34.796h-87.458V212.577c0 48.143-39.618 87.308-88.318 87.308h-85.53c-48.7 0-88.318-39.165-88.318-87.308v-195.825h-87.46c-19.461 0-35.308 15.605-35.308 34.796V402.77c-0.03 15.637-12.864 28.35-28.621 28.35-15.742 0-28.606-12.713-28.65-28.319v-355.469c0-48.143 39.617-87.308 88.317-87.308h148.993V208.329c0 19.16 15.847 34.736 35.31 34.736h77.02c19.477 0 35.293-15.576 35.293-34.736v-248.307h149.01c48.685 0 88.332 39.165 88.332 87.308v355.5c-0.122 15.576-12.956 28.29-28.652 28.29z"  horiz-adv-x="1024" />

    
    <glyph glyph-name="yanjing" unicode="&#58896;" d="M1698.343405 384.274263c0-163.49531-350.168553-512.274263-849.172778-512.274263C362.866404-128 0 215.03986 0 384.274263 0 553.485004 364.434544 896 849.170627 896 1352.098429 896 1698.459563 553.485004 1698.343405 384.274263L1698.343405 384.274263zM849.919204 802.559051c-226.001517 0-409.211514-187.404612-409.211514-418.562277 0-231.159817 183.207846-418.562277 409.211514-418.562277 226.070351 0 409.284651 187.404612 409.284651 418.562277S1075.989555 802.559051 849.919204 802.559051L849.919204 802.559051zM849.170627 651.217367c-143.922595 0-260.599556-119.318493-260.599556-266.521491 0-147.18794 116.676961-266.527944 260.599556-266.527944 143.924746 0 260.552232 119.340004 260.552232 266.527944C1109.722859 531.898874 993.095372 651.217367 849.170627 651.217367L849.170627 651.217367z"  horiz-adv-x="1699" />

    
    <glyph glyph-name="xiaoxi1" unicode="&#59045;" d="M884.992 244.416c-8.448 55.104-33.088 216.32-39.424 246.592-1.6 137.728-124.928 225.6-237.504 262.208v10.176c0 49.28-43.008 89.344-95.936 89.344s-95.872-40.128-95.872-89.344v-6.656c-125.184-36.16-245.76-129.92-247.36-266.112-6.336-30.912-27.52-190.592-34.816-245.888-31.424-18.624-59.392-45.376-59.392-111.552 0-31.36 25.344-90.624 121.088-90.624h153.408A164.992 164.992 0 0 1 512-94.72a165.12 165.12 0 0 1 162.944 137.28h153.344c95.808 0 121.152 59.264 121.152 90.624-0.064 73.6-36.672 95.68-64.448 111.232zM512-46.72a117.824 117.824 0 0 0-114.496 89.28H626.56A117.76 117.76 0 0 0 512-46.72z m316.224 137.216H195.712c-67.968 0-72.768 35.904-73.088 42.624 0 47.744 17.024 60.288 44.992 75.392l10.816 5.824 1.6 12.16c11.968 91.072 32.256 240.832 35.968 255.04l0.896 6.4c0 118.272 115.008 199.232 229.056 227.072l18.304 4.48v43.904c0 22.784 21.504 41.344 47.936 41.344s47.936-18.56 47.936-41.344v-46.144l17.408-4.928c101.504-28.608 220.032-104.448 220.032-224.064l0.832-6.144c3.52-13.376 26.944-164.352 40.896-256.384l1.728-11.328 18.688-10.752c25.152-14.08 41.664-23.296 41.664-70.528 0-1.728-0.832-42.624-73.152-42.624z"  horiz-adv-x="1024" />

    
    <glyph glyph-name="liuliang" unicode="&#58927;" d="M608 6.4c-9.6 0-19.2 6.4-22.4 19.2L448 601.6l-105.6-416c-3.2-9.6-12.8-19.2-22.4-19.2-9.6 0-19.2 6.4-22.4 16l-57.6 176H96c-12.8 0-25.6 9.6-25.6 25.6S80 409.6 96 409.6h160c9.6 0 19.2-6.4 22.4-16l38.4-115.2 108.8 432c3.2 9.6 12.8 19.2 22.4 19.2 9.6 0 19.2-6.4 22.4-19.2L608 137.6l105.6 444.8c3.2 9.6 12.8 19.2 22.4 19.2 9.6 0 19.2-6.4 22.4-16l57.6-176h112c12.8 0 25.6-9.6 25.6-25.6s-9.6-25.6-25.6-25.6H800c-9.6 0-19.2 6.4-22.4 16l-38.4 112-108.8-460.8c0-9.6-12.8-19.2-22.4-19.2z"  horiz-adv-x="1024" />

    
    <glyph glyph-name="yonghu" unicode="&#58991;" d="M917.5-22.9c0 0.6-0.2 1.3-0.2 1.9l-0.2 1.3c0 3.1-0.4 6.2-1.1 9.2-17.4 141.3-109.7 263.4-243.1 321.8 78.3 54.1 124.7 141.9 124.3 235.4 2.9 100.9-50.8 195.5-140.3 246.8-89.4 51.3-200.4 51.3-289.8 0-89.4-51.4-143.1-145.9-140.2-246.9-0.4-93.5 46-181.4 124.5-235.4-132.1-57.8-224-178.2-242.7-317.9-1.4-4.2-2.1-8.6-2.2-13l0.2-3.2 0.2-0.4c-0.5-14.4 7.2-28 19.9-35.4 12.8-7.4 28.7-7.4 41.4 0 12.8 7.4 20.4 20.9 19.9 35.4l-0.2 0.4h0.9c17.4 154.7 146.4 274.8 306 285.1 5.7-0.4 11.4-0.6 17.1-0.6 5.9 0 11.6 0.2 17.3 0.6 159.6-10.3 288.6-130.4 306-285.1h0.9v-0.4c-0.5-14.4 7.2-28 19.9-35.4 12.8-7.4 28.7-7.4 41.5 0s20.4 20.9 19.9 35.4v0.4zM308.4 546.4c2.9 106.4 91.6 191.5 201 192.9 109.4 1.4 200.3-81.5 206-187.8 5.7-106.3-75.9-197.9-184.8-207.7-6.1 0.2-12.3 0.4-18.4 0.4-6.1 0-12.5-0.2-18.6-0.4-106.2 11-186.4 98.7-185.2 202.6z m0 0"  horiz-adv-x="1024" />

    
    <glyph glyph-name="xiazai" unicode="&#58973;" d="M795.694545 500.363636a289.047273 289.047273 0 0 1-567.38909 0 197.585455 197.585455 0 0 1 18.385454-395.636363h30.952727a23.272727 23.272727 0 0 1 0 46.545454H246.690909a151.272727 151.272727 0 1 0-2.327273 302.545455l23.272728-5.352727 3.025454 25.6a242.269091 242.269091 0 0 0 480.814546 0l4.654545-25.134546 23.272727 4.887273a151.272727 151.272727 0 1 0-2.327272-302.545455h-34.909091a23.272727 23.272727 0 0 1 0-46.545454h35.141818a197.585455 197.585455 0 0 1 18.385454 395.636363zM628.363636 206.196364l-91.927272-93.090909v286.254545a23.272727 23.272727 0 0 1-46.545455 0v-285.090909l-91.927273 93.090909A23.272727 23.272727 0 1 1 365.149091 174.545455l131.490909-131.723637a23.272727 23.272727 0 0 1 33.047273 0L661.178182 174.545455A23.272727 23.272727 0 1 1 628.363636 206.196364z"  horiz-adv-x="1024" />

    
    <glyph glyph-name="kaoshizhongxinoff" unicode="&#58900;" d="M461.435 804.091l-24.216-41.943 317.34-183.216 24.215 41.943-317.34 183.216z m-3.593 55.711L828.818 645.62c7.406-4.276 9.943-13.745 5.667-21.151l-55.183-95.58c-4.275-7.406-13.745-9.943-21.15-5.667L387.174 737.404c-7.406 4.276-9.943 13.745-5.668 21.151l55.184 95.58c4.275 7.406 13.745 9.943 21.15 5.667zM240.934 369.866c40.726 70.539 130.923 94.707 201.461 53.981 70.538-40.725 94.707-130.922 53.981-201.46-30.267-52.426-88.757-80.166-146.897-72.528l-60.27-104.389 305.846 130.57c0.305 2.053 0.189 3.253 0.089 4.342-10.822 117.434 10.21 223.538 65.941 328.868 0.156 0.292-42.156 25.238-126.937 74.838L406.563 657.75c-62.051-99.582-142.615-170.813-248.248-220.307a516.206 516.206 0 0 0-7.269-3.326c-0.193-0.086 12.843-109.521 39.109-328.304l59.524 103.1c-34.017 46.391-38.431 109.534-8.745 160.953zM641.4 184.645c0.087-0.95 0.19-2.02 0.31-3.207 2.069-20.527-9.44-40.017-28.415-48.118L256.282-19.094c-14.171-6.05-30.564 0.534-36.614 14.705a27.9 27.9 0 0 0 1.497 24.905L326.34 202.682l17.096-4.418c43.56-11.258 89.875 7.79 112.714 47.348 27.898 48.321 11.342 110.11-36.98 138.008-48.32 27.898-110.109 11.342-138.007-36.98-22.391-38.782-16.46-87.317 13.654-119.515l11.757-12.57-105.458-182.66c-7.437-12.882-23.91-17.295-36.79-9.858a26.933 26.933 0 0 0-13.273 20.098l-46.545 385.668c-2.474 20.496 8.666 40.219 27.496 48.682 2.595 1.167 4.8 2.175 6.603 3.02C236.512 525.38 310.41 590.868 367.794 683.37c12.83 20.682 39.763 27.444 60.841 15.274l128.812-74.37 126.785-73.817c21.928-12.766 29.827-40.587 17.89-62.968-51.483-97.32-70.718-194.38-60.723-302.843zM387.51-18.637V-4.11c0 8.55 6.933 15.483 15.484 15.483h426.362c8.552 0 15.484-6.932 15.484-15.483v-14.527c0-8.551-6.932-15.484-15.484-15.484H402.994c-8.551 0-15.484 6.933-15.484 15.484z"  horiz-adv-x="1024" />

    
    <glyph glyph-name="bianzu" unicode="&#58910;" d="M0 896h1024v-1024H0zM552.504889 798.378667h271.644444v-548.807111H552.504889zM875.861333 661.276444v-475.648H198.485333v475.591112H82.318222v-575.772445c0-36.807111 29.809778-66.958222 66.275556-66.958222h783.473778c36.408889 0 66.275556 30.151111 66.275555 66.958222V661.276444h-122.481778zM932.067556-6.371556000000055H148.593778A91.192889 91.192889 0 0 0 57.457778 84.76444400000003V655.075556c0 1.137778 0 2.218667 0.113778 3.185777a24.917333 24.917333 0 0 0 49.664-1.706666v-571.676445c0-22.869333 18.602667-41.415111 41.472-41.415111h783.473777a41.415111 41.415111 0 0 1 41.415111 41.415111V655.075556a24.917333 24.917333 0 0 0 49.720889 0v-570.197334a91.477333 91.477333 0 0 0-91.249777-91.249778zM917.845333 758.499556A25.031111 25.031111 0 0 1 900.494222 782.222222c-4.778667 1.536-9.671111 2.958222-14.392889 4.551111-69.973333 22.072889-136.192 42.951111-196.721777 49.550223-62.748444 6.826667-111.672889-3.299556-148.764445-31.118223C503.466667 832.853333 454.542222 843.2071109999999 391.793778 836.266667c-60.529778-6.599111-126.691556-27.477333-196.721778-49.550223-4.721778-1.592889-9.500444-3.015111-14.336-4.551111a24.689778 24.689778 0 0 1-17.351111-23.722666v-581.688889c0.455111-12.970667 11.150222-23.324444 24.177778-23.324445h705.991111a24.234667 24.234667 0 0 1 24.177778 24.177778V758.442667h0.113777z m-69.973333-556.657778H560.924444c65.422222 50.403556 152.746667 50.744889 287.004445 0zM566.613333 762.3679999999999c64.056889 52.224 179.370667 16.440889 301.511111-22.129778v-492.885333c-63.601778 24.291556-115.825778 37.489778-162.417777 41.130667a340.536889 340.536889 0 0 1-25.770667 0.967111c-24.177778 0-46.933333-2.730667-68.152889-8.362667a229.774222 229.774222 0 0 1-45.169778-17.237333V762.311111z m-46.364444-560.526222H233.187556c134.257778 50.744889 221.582222 50.403556 287.004444 0zM213.105778 740.238222c122.140444 38.570667 237.454222 74.353778 301.511111 22.129778v-498.403556a232.448 232.448 0 0 1-45.169778 17.180445 282.055111 282.055111 0 0 1-93.866667 7.338667c-46.648889-3.640889-98.986667-16.839111-162.474666-41.130667V740.238222z"  horiz-adv-x="1024" />

    
    <glyph glyph-name="icon---copy" unicode="&#59170;" d="M536.85513482 532.9859318700001c-6.2137837 6.2137837-15.53445925 9.32067555-24.85513482 9.32067555-9.32067555 0-18.64135111-3.10689185-24.85513482-9.32067555l-183.30661926-183.30661926c-12.42756741-12.42756741-12.42756741-31.06891852 0-43.49648593 12.42756741-12.42756741 31.06891852-12.42756741 43.49648593 0l133.59634963 130.48945777V138.41066667999996c0-18.64135111 12.42756741-31.06891852 31.06891852-31.06891852s31.06891852 12.42756741 31.06891852 31.06891852v298.26161777l133.59634963-133.59634962c12.42756741-12.42756741 31.06891852-12.42756741 43.49648593 0 12.42756741 12.42756741 12.42756741 31.06891852 0 43.49648592l-183.30661926 186.41351112z m195.73418666 40.38959408c-46.60337778 93.20675555-139.81013333 155.34459259-251.65824 155.34459258-146.02391703 0-267.19269925-114.95499852-279.62026666-257.8720237-108.74121482-31.06891852-186.41351111-124.27567408-186.41351112-239.2306726 0-133.59634963 108.74121482-239.23067259 248.55134815-248.55134815h528.17161482c105.63432297 46.60337778 217.48242963 173.9859437 217.48242963 295.15472594 0 158.45148445-121.16878222 285.83405037-276.51337482 295.15472593zM791.62026667 45.20391112000004H263.44865185s-186.41351111 18.64135111-186.4135111 186.41351111c0 93.20675555 83.88608 180.19972741 186.4135111 186.41351112 0 127.38256592 83.88608 248.55134815 217.48242963 248.55134815 105.63432297 0 177.09283555-65.24472889 201.94797037-155.3445926 155.34459259 6.2137837 257.8720237-114.95499852 264.0858074-217.48242962 3.10689185-86.99297185-71.45851259-201.94797037-155.34459258-248.55134816z"  horiz-adv-x="1024" />

    
    <glyph glyph-name="80" unicode="&#58995;" d="M512 850.33333333C266.266 850.33333333 67 651.07233333 67 405.32633333S266.236-39.651666670000054 512-39.66666667000004c245.735 0.015 445 199.262 445 445.008C957 651.08633333 757.765 850.33333333 512 850.33333333zM512-9.98566667c-229.018 0-415.333 186.298-415.333 415.313 0 229.03 186.315 415.341 415.333 415.312 229.019 0.015 415.334-186.282 415.334-415.312C927.334 176.31233333 741.019-9.98566667 512-9.98566667zM522.488 352.88933333l-20.976-20.976 20.976-20.975c5.794-5.794 5.794-15.181 0-20.975l-125.866-125.85c-5.78-5.794-15.181-5.794-20.976 0L270.756 268.98833333000005c-5.779 5.795-5.779 15.182 0 20.976l125.866 125.85c5.794 5.794 15.195 5.794 20.976 0l20.989-20.976 20.976 20.976-20.976 21.004c-17.383 17.382-45.558 17.382-62.94 0L249.781 310.93833333c-17.383-17.382-17.383-45.542 0-62.924l104.891-104.904c17.383-17.383 45.543-17.383 62.926 0l125.865 125.878c17.383 17.383 17.383 45.542 0 62.925L522.488 352.88933333zM669.329 667.54233333c-17.383 17.382-45.543 17.382-62.926 0l-125.866-125.85c-17.383-17.383-17.383-45.542 0-62.925l20.976-20.976 20.976 20.976-20.976 20.975c-5.794 5.794-5.794 15.181 0 20.974l125.866 125.85c5.779 5.795 15.195 5.795 20.976 0l104.891-104.874c5.779-5.794 5.779-15.181 0-20.976L627.379 394.83833333c-5.794-5.765-15.195-5.765-20.976 0l-20.975 20.976-20.99-20.976 20.99-20.974c17.383-17.383 45.543-17.383 62.926 0L774.22 499.74333333c17.383 17.382 17.383 45.542 0 62.925L669.329 667.54233333zM428.085 321.42633333000003c5.809-5.794 15.181-5.794 20.989 0l146.842 146.854c5.794 5.794 5.794 15.181 0 20.974-5.809 5.795-15.181 5.795-20.976 0L428.085 342.40133333000006C422.291 336.60633333 422.291 327.22033333 428.085 321.42633333000003z"  horiz-adv-x="1024" />

    
    <glyph glyph-name="qiandao0101" unicode="&#58903;" d="M731.426816 442.744296c-6.451547 0-12.504799-2.506489-17.069312-7.06281L467.099755 188.41964 341.267463 314.268314c-4.564513 4.55325-10.624932 7.059739-17.07136 7.059739-6.447451 0-12.511966-2.506489-17.073407-7.059739-9.409572-9.420835-9.409572-24.732123 0-34.145791l142.690681-142.690681c4.568608-4.556322 10.624932-7.069978 17.065216-7.069978 4.208198 0 8.394895 1.132425 12.163843 3.312292 2.210584 1.155975 4.215365 2.629356 5.949839 4.366901l263.502828 263.498733c9.409572 9.412644 9.409572 24.729051 0 34.141695C743.933663 440.237807 737.877339 442.744296 731.426816 442.744296zM823.82697 716.283318l-65.729802 0 0 60.999419c0 12.322546-9.980904 22.30345-22.302426 22.30345s-22.30345-9.980904-22.30345-22.30345l0-60.999419-389.949455 0 0 60.999419c0 12.322546-9.980904 22.30345-22.30345 22.30345-12.322546 0-22.302426-9.980904-22.302426-22.30345l0-60.999419L200.172006 716.283318c-63.082016 0-114.695413-51.612373-114.695413-114.695413l0-486.854736c0-63.08304 51.612373-114.695413 114.695413-114.695413l623.654964 0c63.08304 0 114.695413 51.612373 114.695413 114.695413L938.522383 601.587905C938.522383 664.670946 886.91001 716.283318 823.82697 716.283318zM200.172006 670.404744l623.654964 0c37.94648 0 68.816838-30.871383 68.816838-68.816838l0-54.522275L131.355168 547.06563l0 54.522275C131.355168 639.534385 162.22655 670.404744 200.172006 670.404744zM823.82697 45.916331 200.172006 45.916331c-37.94648 0-68.816838 30.871383-68.816838 68.816838L131.355168 502.459754l761.289665 0 0-387.726585C892.644832 76.787713 861.77345 45.916331 823.82697 45.916331z"  horiz-adv-x="1024" />

    
    <glyph glyph-name="fanganzhizuo_huaban" unicode="&#58912;" d="M935.253333 684.373333l-119.466666 119.466667c-13.653333 13.653333-30.72 20.48-47.786667 20.48-17.066667 0-34.133333-6.826667-47.786667-20.48L177.493333 264.53333299999997c-3.413333-6.826667-6.826667-10.24-10.24-17.066666l-61.44-232.106667c-3.413333-10.24 0-23.893333 10.24-34.133333 6.826667-3.413333 13.653333-6.826667 23.893334-6.826667h10.24l232.106666 61.44c6.826667 0 10.24 3.413333 13.653334 10.24L935.253333 588.8c27.306667 27.306667 27.306667 68.266667 0 95.573333zM273.066667 264.53333299999997L634.88 622.933333l119.466667-119.466666L395.946667 145.06666700000005 273.066667 264.53333299999997zM228.693333 213.33333300000004l112.64-112.64-157.013333-40.96L228.693333 213.33333300000004z m573.44 337.92L682.666667 670.72l85.333333 85.333333L887.466667 636.586667l-85.333334-85.333334zM416.426667 759.466667c-68.266667 68.266667-174.08 64.853333-242.346667 0L78.506667 663.893333c-13.653333-13.653333-13.653333-34.133333 0-47.786666l81.92-81.92L242.346667 452.266667l10.24-10.24c6.826667-6.826667 17.066667-10.24 23.893333-10.24s17.066667 3.413333 23.893333 10.24c6.826667 6.826667 10.24 17.066667 10.24 27.306666l78.506667 78.506667c13.653333 13.653333 13.653333 34.133333 0 47.786667-13.653333 13.653333-34.133333 13.653333-47.786667 0L269.653333 520.5333330000001l-34.133333 34.133334L307.2 629.76c13.653333 13.653333 13.653333 34.133333 0 47.786667-13.653333 13.653333-37.546667 13.653333-47.786667 0L184.32 605.866667l-34.133333 34.133333 71.68 71.68c40.96 40.96 105.813333 40.96 143.36 0l68.266666-68.266667c13.653333-13.653333 34.133333-13.653333 47.786667 0 13.653333 13.653333 13.653333 34.133333 0 47.786667l-64.853333 68.266667zM877.226667 298.66666699999996L826.026667 349.866667c-13.653333 13.653333-34.133333 13.653333-47.786667 0-13.653333-13.653333-13.653333-34.133333 0-47.786667l51.2-51.2c20.48-20.48 30.72-44.373333 30.72-71.68s-10.24-54.613333-30.72-71.68l-71.68-71.68-23.893333 23.893333 71.68 71.68c13.653333 13.653333 13.653333 34.133333 0 47.786667-13.653333 13.653333-34.133333 13.653333-47.786667 0l-71.68-71.68-37.546667 34.133333 71.68 71.68c13.653333 13.653333 13.653333 34.133333 0 47.786667-13.653333 13.653333-34.133333 13.653333-47.786666 0l-95.573334-95.573333c-13.653333-13.653333-13.653333-34.133333 0-47.786667l157.013334-157.013333c6.826667-6.826667 17.066667-10.24 23.893333-10.24s17.066667 3.413333 23.893333 10.24l95.573334 95.573333c30.72 30.72 51.2 75.093333 51.2 119.466667 0 47.786667-17.066667 92.16-51.2 122.88z"  horiz-adv-x="1024" />

    
    <glyph glyph-name="zhuanyeziyuanku" unicode="&#58959;" d="M846.089 15.927H199.798c-57.221 0-103.773 46.552-103.773 103.772V333.886c0 17.936 14.592 32.527 32.527 32.527h255.275c10.379 0 20.211-5.017 26.303-13.421l29.924-41.369c16.918-23.39 43.178-36.805 72.045-36.805s55.127 13.415 72.046 36.805l29.906 41.345c6.059 8.403 15.909 13.445 26.32 13.445h250.715c17.912 0 32.484-14.572 32.484-32.484v-240.521c0.001-42.723-34.757-77.481-77.481-77.481zM160.025 302.413v-182.714c0-21.931 17.842-39.772 39.773-39.772h646.291c7.309 0 13.482 6.174 13.482 13.481V302.413h-203.1L636 274.113c-14.795-20.454-33.613-36.424-55.932-47.464-20.934-10.356-44.438-15.831-67.97-15.831s-47.036 5.475-67.97 15.831c-22.318 11.04-41.136 27.01-55.931 47.464l-20.471 28.3H160.025z m505.913 13.086l-0.052-0.071a1.6 1.6 0 0 0 0.052 0.071zM788.076 307.19H654.083v40h125.993V622.396H245.605V347.19h123.493v-40H237.605c-17.645 0-32 14.355-32 32V630.396c0 17.645 14.355 32 32 32h550.471c17.645 0 32-14.355 32-32V339.19c0-17.644-14.355-32-32-32zM155.992 329.233L96 337l114 273 35-69zM867.182 331.025l59.992 7.766-114 273-35-69zM787 693H229c-11.045 0-20 8.955-20 20s8.955 20 20 20h558c11.046 0 20-8.955 20-20s-8.954-20-20-20zM785 758H227c-11.045 0-20 8.955-20 20s8.955 20 20 20h558c11.046 0 20-8.955 20-20s-8.954-20-20-20z"  horiz-adv-x="1024" />

    
    <glyph glyph-name="huodong" unicode="&#58895;" d="M911.77864106 693.0413713099999L877.04344645 693.0413713099999c17.61465669 29.86556494 25.34433307 58.35078313 22.8737508 84.77343031-2.04932528 22.11469309-12.53042237 53.74212073-50.93638768 78.94868514-31.84203101 20.94762412-72.7901122 26.08484519-118.21968423 14.73606314-73.6710442-18.49691171-160.86074315-82.08692035-218.19017571-158.93594079-57.36387504 76.84769614-144.48469031 140.43902909-218.1530846 158.93594079-45.46666314 11.42296558-86.45051242 6.2499777-118.2885692-14.73606314-38.37284714-25.20656313-48.85526982-56.83399205-50.90326949-78.94868514-2.46925796-26.4226459 5.18888481-54.9091897 22.87375078-84.77343031l-34.73519589 0c-52.59492291 0-95.39759717-42.83579114-95.39759718-95.46913078l0-122.96611656c0-41.63560529 27.46254332-78.43469778 67.19321612-90.7915834-3.7767455-10.44798019-5.75321158-21.24833242-5.75321158-32.19307872l0-368.91821959c0-52.59757283 42.85168806-95.45058522 95.4505852-95.45058521l675.53404948 0c52.59492291 0 95.37905033 42.85168806 95.37905033 95.45058521l0 368.91954389c0 11.01495558-1.90493119 21.8497503-5.6816767 32.23017113 39.67238621 12.42577059 67.07001878 49.22486308 67.07001879 90.7558166l0 122.93432401C1007.15901698 650.17113769 964.37488958 693.0413713099999 911.77864106 693.0413713099999M850.39162457-44.76195097000004L546.5311909-44.76195097000004 546.5311909 379.11977196l303.86175927 0c15.14407311 0 27.4254509-12.35423699 27.42545091-27.49831011l0-368.91821959C877.81707548-32.442156469999986 865.53569898-44.76195097000004 850.39162457-44.76195097000004M583.94892253 693.0413713099999c48.32538554 55.74110659 111.75642876 99.54526025 163.26244045 112.46647264 26.75514806 6.70567717 48.64066644 4.86963097 64.49213482-5.57967484 16.83970078-11.06396941 19.83619311-20.93040287 20.50914589-28.38056643 2.67988581-27.32079914-26.61737811-64.15565843-40.45396499-78.50755698L583.94892253 693.0413713099999zM939.17097508 597.53912236l0-122.93432401c0-15.14407311-12.24825962-27.4612177-27.39233402-27.4612177L546.5311909 447.14358065 546.5311909 625.01888692l365.24745146 0C926.92139116 625.01888692 939.17097508 612.68054686 939.17097508 597.53912236M478.57759149 379.11977196l0-423.88039733L174.85757639-44.76062536999996c-15.18116553 0-27.46519194 12.31979451-27.46519194 27.46386763l0 368.91821959c0 15.14407311 12.28535201 27.49831011 27.46519194 27.49831011L478.57759149 379.11977196zM192.9319055 771.54760268c0.66897854 7.45148786 3.70653622 17.31792133 20.4747034 28.38056643 15.74151806 10.44930451 37.62703516 12.37543247 64.52790162 5.57967484 51.21855041-12.84835318 114.58203299-56.65648109 163.01339588-112.46647264L233.3143369 693.0413713099999C220.9243331 705.5903405 190.21227865 743.57239761 192.9319055 771.54760268M85.90203921 597.53912236c0 15.14010017 12.28535201 27.48108887 27.4612177 27.48108887l365.21300897 0 0-177.87530626L113.36325821 447.14490626c-15.1771913 0-27.4612177 12.31582027-27.4612177 27.46121771L85.90203921 597.53912236z"  horiz-adv-x="1024" />

    
    <glyph glyph-name="xiaoxi" unicode="&#58890;" d="M1005.381818 29.882182v-116.270546c0-0.744727-0.418909-1.396364-0.465454-2.187636a36.305455 36.305455 0 0 0-10.426182-28.439273 37.376 37.376 0 0 0-52.689455 0l-157.975272 156.997818c-0.837818 0.837818-1.117091 1.908364-1.861819 2.792728v-18.106182h-260.654545c-7.493818 0-14.708364 1.070545-21.876364 2.141091A46.08 46.08 0 0 0 465.454545 11.636364a46.545455 46.545455 0 0 0 0 93.090909v20.340363c13.637818-15.825455 33.233455-26.391273 55.854546-26.391272h260.654545v-9.169455c0.744727 0.884364 1.024 1.954909 1.861819 2.792727a37.376 37.376 0 0 0 52.689454 0L930.909091-1.536v63.208727c0 20.433455 16.663273 37.003636 37.236364 37.003637 20.573091 0 37.236364-16.570182 37.236363-37.003637V108.916364c22.155636 12.846545 37.236364 36.445091 37.236364 63.767272V468.712727c0 40.866909-33.326545 74.007273-74.472727 74.007273H930.909091V337.454545a186.181818 186.181818 0 0 0-186.181818-186.181818H418.909091v22.807273c-0.930909-1.117091-1.303273-2.466909-2.327273-3.537455l-197.492363-197.445818a46.498909 46.498909 0 0 0-65.815273 0 45.986909 45.986909 0 0 0-13.079273 35.793455C140.148364 9.821091 139.636364 10.658909 139.636364 11.636364v146.199272C59.485091 178.641455 0 250.786909 0 337.454545V709.818182a186.181818 186.181818 0 0 0 186.181818 186.181818h558.545455a186.181818 186.181818 0 0 0 186.181818-186.181818v-93.090909h37.236364C1050.391273 616.727273 1117.090909 550.446545 1117.090909 468.712727v-296.029091c0-68.887273-47.569455-126.277818-111.709091-142.801454zM837.818182 709.818182a93.090909 93.090909 0 0 1-93.090909 93.090909H186.181818a93.090909 93.090909 0 0 1-93.090909-93.090909v-372.363637c0-34.350545 18.850909-64.046545 46.545455-80.197818V197.818182a46.545455 46.545455 0 0 0 93.090909 0v-79.453091l118.039272 117.992727a46.498909 46.498909 0 0 0 65.815273 0c1.024-1.024 1.396364-2.373818 2.327273-3.490909V244.363636h325.818182a93.090909 93.090909 0 0 1 93.090909 93.090909V709.818182z"  horiz-adv-x="1117" />

    
    <glyph glyph-name="user" unicode="&#58923;" d="M986.246752-39.07518c0-26.154359-22.742921-47.475847-50.77357-47.475847H95.577124c-27.518934 0-50.034425 20.468629-50.887285 45.997557l0.113715 1.762576a22.060633 22.060633 0 0 1-0.113715 1.990006c1.194003 190.926818 211.907163 345.97668 470.778456 345.976679 259.610439 0 470.778456-155.959578 470.778457-347.568684v-0.682287zM263.021877 602.559467a252.787562 252.787562 0 0 0 252.446418 252.446419 252.787562 252.787562 0 0 0 252.446419-252.446419 252.730705 252.730705 0 0 0-252.446419-252.446419 252.730705 252.730705 0 0 0-252.446418 252.446419z m377.077623-264.613881c99.386563 47.020988 168.752471 147.544697 168.752471 264.613881A293.667962 293.667962 0 0 1 515.468295 895.886285a293.667962 293.667962 0 0 1-293.383675-293.326818c0-117.069184 69.422765-217.592893 168.866185-264.613881-222.08462-42.415547-387.198223-194.793115-387.198223-376.338479v-0.682287c0-48.783565 41.221544-88.469961 91.824542-88.469962h839.896058c50.602998 0 91.710827 39.686396 91.710827 88.469962v0.682287c0 181.545364-165.113604 333.922932-387.084509 376.338479z"  horiz-adv-x="1080" />

    
    <glyph glyph-name="xiangqing" unicode="&#59157;" d="M843 770v-738L583.717 158.672c-22.067 11.015-49.65 16.522-71.717 16.522s-49.65-5.507-71.717-16.522L181 32V770h662zM622.833 500H402.167c-33.1 0-55.167 22-55.167 55s22.067 55 55.167 55h220.666c33.1 0 55.167-22 55.167-55s-22.067-55-55.167-55z m0-215H402.167c-33.1 0-55.167 22-55.167 55s22.067 55 55.167 55h220.666c33.1 0 55.167-22 55.167-55s-22.067-55-55.167-55zM842.75 880h-661.5C120.612 880 71 830.4 71 769.778V-56.89C71-89.956 98.562-112 126.125-112c5.512 0 16.537 0 22.05 5.511l336.262 165.333c5.513 5.512 16.538 5.512 22.05 5.512 5.513 0 16.538 0 22.05-5.512L864.8-106.489c16.538-5.511 27.563-5.511 33.075-5.511 27.562 0 55.125 22.044 55.125 55.111V769.778C953 830.4 903.388 880 842.75 880z"  horiz-adv-x="1024" />

    
    <glyph glyph-name="wenjianjiai" unicode="&#58880;" d="M845.645 678.089l-306.929 0c-30.246 0-55.806 19.156-55.806 41.854 0 53.844-50.083 97.66-111.611 97.66l-195.318 0c-61.555 0-111.611-43.816-111.611-97.66l0-767.322 27.903 0 0-27.902 837.078 0 0 27.902 27.903 0 0 613.858c0.001 61.555-50.083 111.61-111.61 111.61zM175.982 761.797l195.318 0c30.247 0 55.805-19.155 55.805-41.854 0-53.844 50.056-97.659 111.612-97.659l306.928 0c30.763 0 55.805-25.042 55.805-55.806l-781.273 0 0 153.465c0 22.699 25.56 41.854 55.806 41.854zM901.45 510.674l0-530.15-781.274 0 0 530.15 781.274 0z"  horiz-adv-x="1024" />

    
    <glyph glyph-name="wenjianjia" unicode="&#58993;" d="M561.63235285 731.42647073h335.01838211c27.29779432 0 49.63235285-22.33455854 49.63235366-49.63235284v-62.04044147c0-27.29779432-22.33455854-49.63235285-49.63235366-49.63235284H561.63235285c-27.29779432 0-49.63235285 22.33455854-49.63235285 49.63235284v62.04044147c0 27.29779432 22.33455854 49.63235285 49.63235285 49.63235284zM983.50735284-37.875H189.38970568c-54.59558862 0-99.26470568 44.66911789-99.26470568 99.26470568V706.61029432c0 54.59558862 44.66911789 99.26470568 99.26470568 99.26470568h285.38602928c68.24448496-18.61213211 54.59558862-53.35477927 99.2647065-99.26470568l31.02021992-49.63235286H983.50735284c54.59558862 0 99.26470568-44.66911789 99.26470569-99.2647065v-496.32352928c0-54.59558862-44.66911789-99.26470568-99.26470569-99.26470568z"  horiz-adv-x="1204" />

    


  </font>
</defs>
</svg>
