<svg xmlns="http://www.w3.org/2000/svg" width="20.896" height="25.5" viewBox="0 0 20.896 25.5"><defs><style>.a{fill:#0089ff;}</style></defs><g transform="translate(-69.818 -0.465)"><path class="a" d="M87.767,10.177H87.05V7.249a6.784,6.784,0,0,0-13.568,0v2.928h-.717a2.951,2.951,0,0,0-2.948,2.948v9.893a2.951,2.951,0,0,0,2.948,2.948h15a2.951,2.951,0,0,0,2.948-2.948V13.126a2.951,2.951,0,0,0-2.948-2.949ZM75.447,7.249a4.819,4.819,0,1,1,9.639,0v2.928H75.447Zm13.3,15.768a.984.984,0,0,1-.983.982h-15a.983.983,0,0,1-.982-.982V13.126a.984.984,0,0,1,.982-.983h15a.984.984,0,0,1,.983.982Z"/><path class="a" d="M402.8,622.929a2.152,2.152,0,1,0,2.152-2.152A2.152,2.152,0,0,0,402.8,622.929Z" transform="translate(-324.69 -604.857)"/></g></svg>